<?xml version="1.0" encoding="UTF-8" standalone="no"?><!DOCTYPE svg PUBLIC "-//W3C//DTD SVG 1.1//EN" "http://www.w3.org/Graphics/SVG/1.1/DTD/svg11.dtd"><svg width="100%" height="100%" viewBox="0 0 16 16" version="1.1" xmlns="http://www.w3.org/2000/svg" xmlns:xlink="http://www.w3.org/1999/xlink" xml:space="preserve" xmlns:serif="http://www.serif.com/" style="fill-rule:evenodd;clip-rule:evenodd;stroke-linejoin:round;stroke-miterlimit:2;"><rect id="Artboard1" x="0" y="0" width="16" height="16" style="fill:none;"/><clipPath id="_clip1"><rect id="Artboard11" serif:id="Artboard1" x="0" y="0" width="16" height="16"/></clipPath><g clip-path="url(#_clip1)"><path d="M3.381,3.381c-1.495,2.586 -1.136,5.952 1.075,8.163c2.212,2.213 5.576,2.571 8.163,1.075l-0.906,3.381l-9.236,-2.477l-2.477,-9.236l3.381,-0.906Zm10.638,-1.4l1.981,-1.981l-2.858,10.667l-1.514,-1.514c-1.32,1.321 -3.461,1.321 -4.781,0c-1.32,-1.319 -1.32,-3.462 0,-4.781c1.32,-1.321 3.461,-1.321 4.781,0l2.391,-2.391l0,0Zm1.981,-1.981l0,0l0,0l0,0Z" style="fill:#828282;"/></g></svg>