<svg viewBox="0 0 1920 1080" xmlns="http://www.w3.org/2000/svg" fill-rule="evenodd" clip-rule="evenodd" stroke-linecap="round" stroke-linejoin="round" stroke-miterlimit="1.5"><path fill="none" d="M0 0h1920v1080H0z"/><clipPath id="prefix__a"><path d="M0 0h1920v1080H0z"/></clipPath><g clip-path="url(#prefix__a)"><path fill="#26bfb3" d="M0 0h1920v1080H0z"/><path d="M362 325.6c-10.6 0-20.4-1.8-29.4-5.6-9-3.6-16.8-8.8-23.4-15.4-6.8-6.6-12-14.4-15.8-23.2-3.8-9-5.6-18.6-5.6-28.8s1.8-19.8 5.6-28.6c3.8-9 9-16.6 15.6-23.2 6.6-6.6 14.4-11.6 23.4-15.2 9-3.8 18.8-5.6 29.4-5.6 11.2 0 21.2 1.8 29.8 5.4 8.8 3.6 16.4 8.6 23 14.8l-21 21.2c-3.8-4-8.2-7.2-13.6-9.4-5.2-2.2-11.2-3.4-18.2-3.4-6.2 0-11.8 1-17 3.2-5 2-9.4 5-13.2 8.8-3.6 3.8-6.4 8.6-8.6 14-2 5.4-3 11.4-3 18s1 12.8 3 18.2c2.2 5.4 5 10.2 8.6 14 3.8 3.8 8.2 6.8 13.4 9 5 2.2 10.6 3.2 16.8 3.2 7.2 0 13.4-1.2 18.8-3.4s10-5.4 13.8-9.4l21.2 21.2c-6.8 6.2-14.6 11.2-23.2 14.8-8.8 3.6-19 5.4-30.4 5.4zM470.6 270.8l-54.4-88.6h36.4l41.8 71.6H471l41.8-71.6h35.6l-54.8 88.6h-23zm-3.8 52.6v-67h31.4v67h-31.4zM534.6 323.4l56-141.2H619l55.4 141.2h-33.2l-42.4-117.2h11.4l-43 117.2h-32.6zm31.8-25.6v-25.6h77v25.6h-77zM689.4 323.4V182.2h22l9.4 28.2v113h-31.4zm97.4 0l-83.2-106.6 7.8-34.6 83.2 106.6-7.8 34.6zm0 0l-8.4-28.2v-113h31.4v141.2h-23zM827.6 274.4l46.4-92.2h34.2l-47.4 92.2h-33.2zm0 17.6v-17.6l10.4-9h102.8V292H827.6zm66.6 31.4V236H925v87.4h-30.8zM1001.199 325.6c-11.6 0-21.6-2-30-5.8-8.2-3.6-15.8-9.4-22.8-17.2l20.4-20.2c4.6 5.2 9.6 9.2 15 12.2 5.6 2.8 12 4.2 19.4 4.2 6.6 0 11.8-1.2 15.4-3.6 3.8-2.4 5.6-5.8 5.6-10 0-3.8-1.2-7-3.6-9.4-2.4-2.4-5.6-4.4-9.6-6.2-3.8-1.8-8.2-3.4-13-5-4.6-1.6-9.4-3.4-14-5.4-4.6-2.2-9-4.8-13-7.8-3.8-3.2-7-7.2-9.4-11.8-2.4-4.8-3.6-10.8-3.6-18 0-8.6 2-16.2 6.2-22.4 4.2-6.2 10.2-11 17.6-14.4 7.4-3.2 16-4.8 25.8-4.8s18.8 1.8 27 5.2c8.2 3.4 15 8.2 20.4 14.2l-20.4 20.2c-4.2-4.4-8.6-7.6-13-9.8-4.2-2.2-9.2-3.2-14.6-3.2s-9.8 1-13 3.2c-3.2 2-4.8 5-4.8 8.8 0 3.6 1.2 6.6 3.6 8.8 2.4 2.2 5.6 4 9.4 5.6 4 1.6 8.4 3.2 13 4.8 4.8 1.6 9.6 3.4 14.2 5.6 4.6 2.2 9 4.8 12.8 8.2 4 3.2 7.2 7.4 9.6 12.4 2.4 5 3.6 11 3.6 18.4 0 13.4-4.8 24-14.4 31.8-9.6 7.6-22.8 11.4-39.8 11.4zM1132.399 323.4V307h42c8 0 14.2-2.4 18.8-7 4.6-4.8 6.8-10.6 6.8-17.2 0-4.6-1-8.6-3-12.4-2-3.6-4.8-6.4-8.6-8.6-3.8-2.2-8.4-3.2-13.4-3.2h-42.6v-16.4h39.8c6.6 0 12-1.8 16-5.2 3.8-3.6 5.8-8.8 5.8-15.4s-2-11.8-6.2-15.4c-4.2-3.4-9.6-5.2-16.4-5.2h-39v-16.4h39.4c9 0 16.6 1.6 22.6 4.8 6.2 3.4 10.8 7.6 13.8 13 3.2 5.4 4.8 11.2 4.8 17.6 0 7.4-2 14-6.2 19.6-4 5.6-10 10-17.8 13.2l1.6-6c9 3.2 15.8 8 20.8 14.6 5 6.4 7.6 14 7.6 22.8 0 7.4-1.8 14-5.4 19.8-3.6 5.8-8.8 10.6-15.6 14.2-6.6 3.4-14.8 5.2-24.6 5.2h-41zm-12.6 0V184.6h18.8v138.8h-18.8zM1244.399 323.4V184.6h18.8v138.8h-18.8zm12.8 0v-17.2h74.4v17.2h-74.4zM1405.999 325.4c-9.8 0-19-1.8-27.6-5.6-8.6-3.6-16-8.6-22.4-15.4-6.4-6.6-11.4-14.2-15-22.8-3.4-8.6-5.2-18-5.2-27.8 0-10 1.8-19.2 5.2-27.8 3.6-8.6 8.6-16.2 14.8-22.8 6.4-6.6 13.8-11.6 22.2-15.2 8.6-3.6 17.8-5.4 27.6-5.4s19 1.8 27.4 5.4c8.6 3.6 16 8.6 22.4 15.2 6.4 6.6 11.4 14.2 15 22.8 3.6 8.6 5.4 18 5.4 28 0 9.8-1.8 19.2-5.4 27.8-3.6 8.6-8.6 16.2-15 22.8-6.2 6.6-13.6 11.6-22.2 15.4-8.4 3.6-17.4 5.4-27.2 5.4zm-.4-18c10 0 18.8-2.2 26.2-6.8 7.6-4.6 13.6-11 18-19 4.4-8.2 6.6-17.4 6.6-27.8 0-7.8-1.2-14.8-3.8-21.2-2.6-6.6-6-12.2-10.6-17-4.6-4.8-9.8-8.4-16-11-6.2-2.6-13-4-20.4-4-9.8 0-18.6 2.2-26 6.8-7.6 4.6-13.6 10.8-17.8 18.8-4.4 8-6.6 17.2-6.6 27.6 0 7.8 1.2 15 3.8 21.6 2.4 6.6 5.8 12.2 10.4 17 4.4 4.6 9.8 8.4 16 11 6.2 2.6 12.8 4 20.2 4zM1565.599 325.4c-9.8 0-18.8-1.8-27.4-5.6-8.4-3.6-15.8-8.6-22.2-15.2-6.2-6.6-11.2-14.2-14.8-22.8-3.6-8.6-5.4-18-5.4-28s1.8-19.2 5.4-27.8c3.6-8.6 8.6-16.2 15-22.8 6.4-6.6 13.8-11.6 22.4-15.2 8.6-3.6 18-5.4 28.2-5.4 11 0 21.2 2.2 30.6 6.4 9.4 4.2 17.2 10.4 23.4 18.4l-13 13c-4.4-6.4-10.2-11.2-17.4-14.6-7.2-3.4-15-5.2-23.6-5.2-10.2 0-19.2 2.2-27 6.8-7.8 4.6-13.8 10.8-18.2 18.8-4.2 8-6.4 17.2-6.4 27.6 0 10.6 2.2 19.8 6.6 27.8 4.4 8 10.4 14.2 17.8 18.8 7.4 4.6 16 6.8 25.6 6.8 9.8 0 18.2-1.8 25.2-5.6 7.2-3.8 12.8-9.2 16.6-16.4 3.8-7.4 5.8-16.2 5.8-26.8l11.4 8.2h-60v-17.2h68v2.8c0 16.2-2.8 29.6-8.6 40.6-5.6 10.8-13.4 19-23.6 24.4-10 5.4-21.4 8.2-34.4 8.2z" fill="#fff" fill-rule="nonzero"/><g><ellipse cx="960" cy="1130" rx="500" ry="450" fill="none"/><clipPath id="prefix__b"><ellipse cx="960" cy="1130" rx="500" ry="450"/></clipPath><g clip-path="url(#prefix__b)"><ellipse cx="960" cy="1130" rx="500" ry="450" fill="url(#prefix___Linear3)"/><ellipse cx="960" cy="1118.75" rx="487.5" ry="438.75" fill="url(#prefix___Radial4)"/><ellipse cx="960" cy="1118.75" rx="487.5" ry="438.75" fill="url(#prefix___Linear5)"/><ellipse cx="960" cy="935" rx="330" ry="245" fill="url(#prefix___Linear6)"/><ellipse cx="960" cy="770" rx="240" ry="160" fill="url(#prefix___Radial7)"/><path d="M867.42 921.5c10.986 13.543 48.688 24.538 92.58 24.538 43.892 0 81.594-10.995 92.58-24.538-17.885 8.841-53.212 16.019-92.58 16.019-39.368 0-74.695-7.178-92.58-16.019z" fill="#fff"/></g><ellipse cx="960" cy="1130" rx="500" ry="450" fill="none" stroke="url(#prefix___Linear8)" stroke-width="8"/><g fill="#fff"><path d="M685.441 858.336c16.358 24.57 3.715 67.714-28.216 96.285-31.932 28.571-71.138 31.819-87.497 7.248-16.359-24.57-3.716-67.714 28.216-96.285 31.932-28.571 71.138-31.819 87.497-7.248zM562.755 998.001c7.707 8.565 7.625 22.988-.182 32.187-7.807 9.2-20.402 9.715-28.108 1.15-7.707-8.565-7.625-22.988.182-32.188 7.807-9.2 20.402-9.715 28.108-1.149zM1251.08 899.934c13.05-8.668 31.866-2.721 41.993 13.27 10.126 15.992 7.753 36.013-5.297 44.681s-31.866 2.722-41.992-13.27c-10.127-15.992-7.753-36.013 5.296-44.681zM1311.13 886.185c5.656-5.183 15.655-3.2 22.314 4.425 6.659 7.625 7.473 18.023 1.817 23.205-5.657 5.183-15.655 3.2-22.315-4.425-6.659-7.625-7.473-18.023-1.816-23.205z"/></g><g><path d="M955.169 389.117c4.157-26.427 12.654-49.271 22.255-62.671 17.33-12.676 40.518-24.446 68.185-26.446-7.9 22.756-37.934 66.056-72.276 87.492 64.544-9.79 123.776 15.684 162.114 53.953C1174.733 480.662 1210 535.733 1210 640c0 88.267-29.76 137.306-16.037 201.539-9.587-8.345-16.555-20.9-18.959-29.242-19.935 30.351-42.925 51.237-75.31 69.737 19.529-43.121 15.464-66.229 20.609-101.987H796.362c1.819 40.596 7.42 63.001 23.9 101.987-27.395-18.252-51.142-35.769-72.3-69.737-3.855 11.655-9.167 20.165-19.476 29.242C743.978 773.83 710 731.325 710 640c0-78.325 23.465-142.178 65.105-185.293 41.403-42.869 112.298-77.274 180.064-65.59z" fill="url(#prefix___Radial9)" stroke="url(#prefix___Linear10)" stroke-width="8" stroke-miterlimit="4"/><path d="M779.615 768.809s32.77-13.789 12.78-61.296c-7.611-18.086-28.474-26.591-46.561-18.981-18.086 7.611-26.591 28.474-18.98 46.561 19.99 47.506 52.761 33.716 52.761 33.716zM1140.38 768.809s-32.77-13.789-12.78-61.296c7.611-18.086 28.474-26.591 46.561-18.981 18.086 7.611 26.591 28.474 18.98 46.561-19.99 47.506-52.761 33.716-52.761 33.716z" fill="#fcd4d2" stroke="#fbb5b5" stroke-width="8" stroke-linejoin="miter" stroke-miterlimit="1"/><path d="M960 900c-66 0-114.232-25.114-158-63.504-26.398-23.155-54-88.13-54-162.68 0-124.128 86.98-226.854 212-226.855 125.02.001 212 102.727 212 226.855 0 74.55-27.602 139.525-54 162.68-43.768 38.39-92 63.504-158 63.504z" fill="#ffe0e0"/><clipPath id="prefix__c"><path d="M960 900c-66 0-114.232-25.114-158-63.504-26.398-23.155-54-88.13-54-162.68 0-124.128 86.98-226.854 212-226.855 125.02.001 212 102.727 212 226.855 0 74.55-27.602 139.525-54 162.68-43.768 38.39-92 63.504-158 63.504z"/></clipPath><g clip-path="url(#prefix__c)"><ellipse cx="815.404" cy="793.324" rx="137.297" ry="50.486" fill="url(#prefix___Radial12)"/><ellipse cx="1104.6" cy="793.324" rx="137.297" ry="50.486" fill="url(#prefix___Radial13)"/><path d="M968.166 440.802C840.21 444.193 776.955 495.743 746.5 561.109c-16.919 36.313-4.587 59.883.965 89.996 3.544 19.227-.737 58.284-.986 80.102 24.539-20.964 42.545-64.186 43.515-82.757 52.362 39.452 140.824 58.285 220.921 34.553-19.88-15.653-32.585-36.382-40.815-51.848 41.553 32.906 98.246 61.197 181.242 45.292.705 11.37 24.246 40.829 30.179 54.179 0 0-3.184-36.302 12.869-63.049 3.712-6.184.053-23.742 1.145-31.689 11.351-82.629-97.966-198.515-227.369-195.086z" fill="#fcd4d2"/></g><path d="M960 900c-66 0-114.232-25.114-158-63.504-26.398-23.155-54-88.13-54-162.68 0-124.128 86.98-226.854 212-226.855 125.02.001 212 102.727 212 226.855 0 74.55-27.602 139.525-54 162.68-43.768 38.39-92 63.504-158 63.504z" fill="none" stroke="#fbb5b5" stroke-width="8" stroke-linejoin="miter" stroke-miterlimit="1"/><path d="M959.267 434.869C831.31 438.26 733.8 516.895 733.8 625.473c0 9.81.677 18.126 1.703 25.459 4.365 31.207 15.039 44.592 6.673 79.399 24.952-19.459 34.165-63.127 36.865-82.026 51.914 30.765 155.743 47.081 226.94 33.731-19.282-10.854-55.402-41.531-63.78-57.847 44.498 40.872 134.978 56.364 201.725 41.531 2.93 17.696 14.726 44.356 35.528 62.487-4.973-23.871-1.306-45.305 2.138-70.155 1.693-12.21 3.332-25.244 3.866-39.797 3.058-83.348-96.789-186.815-226.191-183.386z" fill="url(#prefix___Radial14)"/><path d="M739.083 669.588c4.599 19.587 9.593 33.699 3.093 60.743 24.952-19.459 34.165-63.127 36.865-82.026 51.914 30.765 155.743 47.081 226.94 33.731-19.282-10.854-55.402-41.531-63.78-57.847 44.498 40.872 134.978 56.364 201.725 41.531 2.93 17.696 14.726 44.356 35.528 62.487-3.917-18.805-2.473-36.098 0-54.74" fill="none" stroke="#1e968d" stroke-width="8" stroke-miterlimit="44"/><path d="M912 822.947c0 24.009 21.508 43.5 48 43.5s48-19.491 48-43.5c-9.486-9.774-27.728-17.71-48-17.71s-38.514 7.936-48 17.71z" fill="#ff8a9e"/><clipPath id="prefix__d"><path d="M912 822.947c0 24.009 21.508 43.5 48 43.5s48-19.491 48-43.5c-9.486-9.774-27.728-17.71-48-17.71s-38.514 7.936-48 17.71z"/></clipPath><g clip-path="url(#prefix__d)"><ellipse cx="960" cy="802.237" rx="51" ry="14.707" fill="#fff"/></g><path d="M1143.33 715.117c-9.228 35.081-25.747 66.444-64.43 66.339-42.125-.113-48.354-38.235-52.791-68.786-.917-6.317-1.47-13.762-.959-20.042a14.99 14.99 0 015.969-10.817c30.605-22.809 71.859-26.256 106.312 1.388a22.475 22.475 0 018.262 20.794c-.603 4.214-1.544 8.008-2.363 11.124z" fill="#fff"/><clipPath id="prefix__e"><path d="M1143.33 715.117c-9.228 35.081-25.747 66.444-64.43 66.339-42.125-.113-48.354-38.235-52.791-68.786-.917-6.317-1.47-13.762-.959-20.042a14.99 14.99 0 015.969-10.817c30.605-22.809 71.859-26.256 106.312 1.388a22.475 22.475 0 018.262 20.794c-.603 4.214-1.544 8.008-2.363 11.124z"/></clipPath><g clip-path="url(#prefix__e)"><ellipse cx="1079.31" cy="728.817" rx="38.176" ry="50.931" fill="url(#prefix___Linear17)"/><ellipse cx="1079.31" cy="728.817" rx="15.655" ry="26.078" fill="url(#prefix___Linear18)"/><path d="M1041.85 738.698c-.472-3.195-.72-6.5-.72-9.881 0-28.11 17.107-50.932 38.177-50.932s38.176 22.822 38.176 50.932c0 3.395-.25 6.714-.726 9.926-25.354-22.828-50.443-22.175-74.907-.045z" fill-opacity=".25"/><path d="M1070.71 687.951c4.582 3.521 4.07 11.887-1.143 18.671-5.213 6.784-13.166 9.432-17.748 5.911-4.583-3.521-4.071-11.888 1.143-18.672 5.213-6.783 13.165-9.432 17.748-5.91z" fill="#fff"/><ellipse cx="1079.31" cy="767.225" rx="15.807" ry="11.34" fill="url(#prefix___Linear19)"/><ellipse cx="1085.43" cy="774.562" rx="3.21" ry="2.652" fill="#fff" fill-opacity=".5"/><ellipse cx="1086.36" cy="746.244" rx="3.639" ry="3.762" fill="#fff"/><ellipse cx="1082.3" cy="741.445" rx="1.165" ry="1.204" fill="#fff"/><path d="M1017.63 659.706h132.707v52.485h-6.267c-40.36-37.279-79.103-36.486-118.263-1.722h-8.177v-50.763z" fill="#115751"/></g><g><path d="M776.672 715.117c9.228 35.081 25.747 66.444 64.43 66.339 42.125-.113 48.354-38.235 52.791-68.786.917-6.317 1.47-13.762.959-20.042a14.99 14.99 0 00-5.969-10.817c-30.605-22.809-71.859-26.256-106.312 1.388a22.475 22.475 0 00-8.262 20.794c.603 4.214 1.544 8.008 2.363 11.124z" fill="#fff"/><clipPath id="prefix__f"><path d="M776.672 715.117c9.228 35.081 25.747 66.444 64.43 66.339 42.125-.113 48.354-38.235 52.791-68.786.917-6.317 1.47-13.762.959-20.042a14.99 14.99 0 00-5.969-10.817c-30.605-22.809-71.859-26.256-106.312 1.388a22.475 22.475 0 00-8.262 20.794c.603 4.214 1.544 8.008 2.363 11.124z"/></clipPath><g clip-path="url(#prefix__f)"><ellipse cx="840.69" cy="728.817" rx="38.176" ry="50.931" fill="url(#prefix___Linear21)"/><ellipse cx="840.69" cy="728.817" rx="15.655" ry="26.078" fill="url(#prefix___Linear22)"/><path d="M803.233 738.698a67.644 67.644 0 01-.719-9.881c0-28.11 17.106-50.932 38.176-50.932s38.177 22.822 38.177 50.932c0 3.395-.25 6.714-.726 9.926-25.355-22.828-50.444-22.175-74.908-.045z" fill-opacity=".25"/><path d="M832.088 687.951c4.583 3.521 4.07 11.887-1.143 18.671-5.213 6.784-13.165 9.432-17.748 5.911-4.582-3.521-4.07-11.888 1.143-18.672 5.213-6.783 13.166-9.432 17.748-5.91z" fill="#fff"/><ellipse cx="840.69" cy="767.225" rx="15.807" ry="11.34" fill="url(#prefix___Linear23)"/><ellipse cx="846.813" cy="774.562" rx="3.21" ry="2.652" fill="#fff" fill-opacity=".5"/><ellipse cx="847.741" cy="746.244" rx="3.639" ry="3.762" fill="#fff"/><ellipse cx="843.685" cy="741.445" rx="1.165" ry="1.204" fill="#fff"/><path d="M902.368 659.706H769.661v52.485h6.267c40.36-37.279 79.103-36.486 118.263-1.722h8.177v-50.763z" fill="#115751"/></g></g><g fill="#115751"><path d="M1118.41 628.539a3.792 3.792 0 004.308-6.169c-8.658-7.503-22.465-11.627-36.586-11.757-14.4-.134-28.889 3.482-37.604 10.986a3.601 3.601 0 004.038 5.893c9.399-4.65 22.052-6.459 33.566-6.188 11.395.269 23.329 2.772 32.278 7.235zM801.585 628.539a3.792 3.792 0 01-4.308-6.169c8.658-7.503 22.465-11.627 36.586-11.757 14.4-.134 28.889 3.482 37.604 10.986a3.601 3.601 0 01-4.038 5.893c-9.399-4.65-22.052-6.459-33.566-6.188-11.395.269-23.329 2.772-32.278 7.235z"/></g><g fill="#fff"><path d="M875.291 460.43c12.791 15.266 5.353 42.617-16.6 61.04-21.953 18.424-50.16 20.988-62.951 5.722-12.791-15.265-5.352-42.616 16.6-61.04 21.953-18.423 50.161-20.987 62.951-5.722zM1118.4 519.053c5.692-1.501 11.774 2.806 13.574 9.613 1.801 6.806-1.358 13.55-7.05 15.051-5.691 1.501-11.774-2.807-13.574-9.613-1.801-6.806 1.359-13.55 7.05-15.051zM1141.59 521.318c2.631-1.151 5.999.725 7.516 4.187 1.517 3.461.612 7.205-2.019 8.356-2.631 1.15-5.999-.725-7.516-4.187-1.517-3.461-.612-7.205 2.019-8.356zM784.695 540.826c5.907 5.295 6.416 14.384 1.136 20.283-5.281 5.9-14.363 6.391-20.27 1.096s-6.416-14.384-1.135-20.283c5.28-5.9 14.362-6.391 20.269-1.096z"/></g></g></g></g><defs><linearGradient id="prefix___Linear3" x1="0" y1="0" x2="1" y2="0" gradientUnits="userSpaceOnUse" gradientTransform="matrix(0 900 -900 0 960 680)"><stop offset="0" stop-color="#26bfb3"/><stop offset="1" stop-color="#23b2a7"/></linearGradient><linearGradient id="prefix___Linear5" x1="0" y1="0" x2="1" y2="0" gradientUnits="userSpaceOnUse" gradientTransform="matrix(0 237 -237 0 960 1320.5)"><stop offset="0" stop-color="#fff" stop-opacity="0"/><stop offset=".53" stop-color="#fff" stop-opacity=".11"/><stop offset="1" stop-color="#fff" stop-opacity=".5"/></linearGradient><linearGradient id="prefix___Linear6" x1="0" y1="0" x2="1" y2="0" gradientUnits="userSpaceOnUse" gradientTransform="matrix(0 490 -594 0 960 690)"><stop offset="0" stop-color="#fff" stop-opacity=".4"/><stop offset=".83" stop-color="#fff" stop-opacity="0"/><stop offset="1" stop-color="#fff" stop-opacity="0"/></linearGradient><linearGradient id="prefix___Linear8" x1="0" y1="0" x2="1" y2="0" gradientUnits="userSpaceOnUse" gradientTransform="matrix(0 900 -880 0 960 680)"><stop offset="0" stop-color="#2eaaa0"/><stop offset="1" stop-color="#2a978f"/></linearGradient><linearGradient id="prefix___Linear10" x1="0" y1="0" x2="1" y2="0" gradientUnits="userSpaceOnUse" gradientTransform="rotate(90 338 638) scale(624.484)"><stop offset="0" stop-color="#2eaaa0"/><stop offset="1" stop-color="#268780"/></linearGradient><linearGradient id="prefix___Linear17" x1="0" y1="0" x2="1" y2="0" gradientUnits="userSpaceOnUse" gradientTransform="rotate(90 320.022 997.908) scale(101.863)"><stop offset="0" stop-color="#115751"/><stop offset="1" stop-color="#26bfb3"/></linearGradient><linearGradient id="prefix___Linear18" x1="0" y1="0" x2="1" y2="0" gradientUnits="userSpaceOnUse" gradientTransform="rotate(90 307.596 1010.334) scale(52.1563)"><stop offset="0" stop-color="#26bfb3"/><stop offset="1" stop-color="#abeee9"/></linearGradient><linearGradient id="prefix___Linear19" x1="0" y1="0" x2="1" y2="0" gradientUnits="userSpaceOnUse" gradientTransform="rotate(90 161.712 917.598) scale(22.6793)"><stop offset="0" stop-color="#fff" stop-opacity=".25"/><stop offset="1" stop-color="#fff" stop-opacity=".5"/></linearGradient><linearGradient id="prefix___Linear21" x1="0" y1="0" x2="1" y2="0" gradientUnits="userSpaceOnUse" gradientTransform="rotate(90 200.712 878.597) scale(101.863)"><stop offset="0" stop-color="#115751"/><stop offset="1" stop-color="#26bfb3"/></linearGradient><linearGradient id="prefix___Linear22" x1="0" y1="0" x2="1" y2="0" gradientUnits="userSpaceOnUse" gradientTransform="rotate(90 188.286 891.024) scale(52.1563)"><stop offset="0" stop-color="#26bfb3"/><stop offset="1" stop-color="#abeee9"/></linearGradient><linearGradient id="prefix___Linear23" x1="0" y1="0" x2="1" y2="0" gradientUnits="userSpaceOnUse" gradientTransform="rotate(90 42.402 798.288) scale(22.6793)"><stop offset="0" stop-color="#fff" stop-opacity=".25"/><stop offset="1" stop-color="#fff" stop-opacity=".5"/></linearGradient><radialGradient id="prefix___Radial4" cx="0" cy="0" r="1" gradientUnits="userSpaceOnUse" gradientTransform="matrix(0 727.058 -759.371 0 960 830.442)"><stop offset="0" stop-color="#26bfb3"/><stop offset=".54" stop-color="#26bfb3"/><stop offset=".74" stop-color="#24b6aa"/><stop offset="1" stop-color="#20a197"/></radialGradient><radialGradient id="prefix___Radial7" cx="0" cy="0" r="1" gradientUnits="userSpaceOnUse" gradientTransform="matrix(240 0 0 160 960 770)"><stop offset="0" stop-color="#004b45" stop-opacity=".5"/><stop offset="1" stop-color="#004d46" stop-opacity="0"/></radialGradient><radialGradient id="prefix___Radial9" cx="0" cy="0" r="1" gradientUnits="userSpaceOnUse" gradientTransform="matrix(0 500 -500 0 960 400)"><stop offset="0" stop-color="#26bfb3"/><stop offset=".5" stop-color="#26bfb3"/><stop offset="1" stop-color="#1e968d"/></radialGradient><radialGradient id="prefix___Radial12" cx="0" cy="0" r="1" gradientUnits="userSpaceOnUse" gradientTransform="matrix(0 -50.4863 137.297 0 815.404 793.324)"><stop offset="0" stop-color="#f594a7" stop-opacity=".5"/><stop offset="1" stop-color="#f594a7" stop-opacity="0"/></radialGradient><radialGradient id="prefix___Radial13" cx="0" cy="0" r="1" gradientUnits="userSpaceOnUse" gradientTransform="matrix(0 -50.4863 137.297 0 1104.6 793.324)"><stop offset="0" stop-color="#f594a7" stop-opacity=".5"/><stop offset="1" stop-color="#f594a7" stop-opacity="0"/></radialGradient><radialGradient id="prefix___Radial14" cx="0" cy="0" r="1" gradientUnits="userSpaceOnUse" gradientTransform="matrix(0 500 -500 0 960 400)"><stop offset="0" stop-color="#26bfb3"/><stop offset=".5" stop-color="#26bfb3"/><stop offset="1" stop-color="#1e968d"/></radialGradient></defs></svg>