<svg xmlns="http://www.w3.org/2000/svg" xmlns:xlink="http://www.w3.org/1999/xlink" width="100%" height="100%" viewBox="0 0 2000 2000" fill-rule="evenodd" stroke-linecap="round" stroke-linejoin="round" stroke-miterlimit="1.5" xmlns:v="https://vecta.io/nano"><clipPath id="A"><path d="M0 0h2000v2000H0z"/></clipPath><g clip-path="url(#A)"><path d="M0 0h2000v2000H0z" fill="#26bfb3"/><path d="M530.854 1222.86C517.662 1160.852 500 1093.113 500 999.998c0-156.65 46.93-284.356 130.2-370.586 82.805-85.737 224.595-154.548 360.13-131.18 8.312-52.854 25.307-98.543 44.51-125.34 34.66-25.353 81.036-48.893 136.37-52.893-15.8 45.513-75.87 132.112-144.552 174.983 129.09-19.58 247.553 31.37 324.228 107.908C1429.467 681.322 1500 791.463 1500 999.998c0 90.615-15.682 160.56-27.21 224.556 313.752 148.53 527.21 440.224 527.21 775.444 0 485.685-448.085 880-1000 880S0 2485.683 0 1999.998c0-336.53 215.13-629.195 530.854-777.138z" fill="none" stroke="#fff" stroke-width="80"/><ellipse cx="1000" cy="2000" rx="1000" ry="880" fill="url(#G)"/><clipPath id="B"><ellipse cx="1000" cy="2000" rx="1000" ry="880"/></clipPath><g clip-path="url(#B)"><ellipse cx="1000" cy="1288.3" rx="368.099" ry="281.725" fill="url(#H)"/><path d="M779.765 1515.03c24.806 40.187 114.95 72.813 220.235 72.813s195.43-32.626 220.235-72.813c-36.706 30.348-122.754 54.986-220.235 54.986s-183.53-24.638-220.235-54.986z" fill="#fff"/></g><g fill="#fff"><path d="M450.88 1468.75c32.718 48.05 7.432 132.42-56.432 188.292s-142.275 62.223-174.993 14.174-7.43-132.42 56.432-188.292 142.275-62.223 174.993-14.174zM205.5 1741.87c15.413 16.75 15.25 44.954-.365 62.945s-40.803 18.997-56.216 2.248-15.25-44.955.365-62.945 40.804-18.998 56.216-2.248zm1376.65-191.77c26.1-16.95 63.732-5.323 83.985 25.95s15.506 70.425-10.594 87.376-63.732 5.322-83.985-25.95-15.506-70.424 10.594-87.375zm120.12-26.9c11.313-10.135 31.3-6.258 44.63 8.653s14.947 35.245 3.634 45.38-31.3 6.258-44.63-8.653-14.947-35.245-3.634-45.38z"/></g><path d="M990.34 498.234c8.312-52.854 25.307-98.543 44.51-125.34 34.66-25.353 81.036-48.893 136.37-52.893-15.8 45.513-75.87 132.112-144.552 174.983 129.09-19.58 247.553 31.37 324.228 107.908C1429.467 681.324 1500 791.465 1500 1000c0 176.535-59.52 274.612-32.074 403.08-19.175-16.7-33.1-41.8-37.917-58.486-39.87 60.702-85.85 102.475-150.62 139.475 39.057-86.24 30.928-132.457 41.22-203.974H672.724c3.638 81.193 14.84 126 47.8 203.974-54.8-36.504-102.284-71.538-144.6-139.475-7.71 23.31-18.333 40.33-38.953 58.486C567.956 1267.66 500 1182.65 500 1000c0-156.65 46.93-284.356 130.2-370.586 82.805-85.737 224.595-154.548 360.13-131.18z" fill="url(#I)"/><g fill="#fcd4d2"><path d="M639.23 1257.62s65.54-27.58 25.56-122.593c-15.22-36.173-56.947-53.183-93.12-37.96s-53.183 56.947-37.962 93.12c39.98 95.013 105.522 67.434 105.522 67.434zm721.54 0s-65.54-27.58-25.56-122.593c15.22-36.173 56.947-53.183 93.12-37.96s53.183 56.947 37.962 93.12c-39.98 95.013-105.522 67.434-105.522 67.434z"/></g><use xlink:href="#R" fill="#fde3e2"/><clipPath id="C"><use xlink:href="#R"/></clipPath><g clip-path="url(#C)"><ellipse cx="710.807" cy="1306.65" rx="274.594" ry="100.973" fill="url(#J)"/><ellipse cx="1289.19" cy="1306.65" rx="274.594" ry="100.973" fill="url(#K)"/><path d="M1016.33 601.604c-255.912 6.782-382.422 109.88-443.333 240.615-33.837 72.624-9.172 119.765 1.93 179.99 7.09 38.454-1.473 116.568-1.97 160.204 49.077-41.928 85.1-128.373 87.03-165.514 104.724 78.903 281.648 116.57 441.84 69.106-39.758-31.306-65.168-72.764-81.628-103.696 83.105 65.812 196.49 122.395 362.484 90.585 1.41 22.74 48.49 81.658 60.357 108.356 0 0-6.368-72.603 25.738-126.096 7.423-12.37.106-47.485 2.3-63.38 22.703-165.258-195.932-397.03-454.738-390.172z" fill="#fcd4d2"/></g><path d="M998.533 589.738C742.62 596.52 637.53 719.364 581.9 852.43c-24.927 59.625-33.157 80.35-34.298 118.516-3.082 103.07 37.413 123.745 16.752 209.716 49.904-38.92 68.328-126.256 73.728-164.054 103.83 61.53 311.488 94.163 453.882 67.464-38.565-21.708-110.805-83.064-127.562-115.696 88.997 81.745 269.956 112.73 403.45 83.064 5.86 35.392 29.45 88.7 71.056 124.973-14.832-71.198 8.765-131.558 12.007-219.903 6.118-166.697-193.577-373.63-452.382-366.773z" fill="url(#I)"/><use xlink:href="#S" fill="#ff8a9e"/><clipPath id="D"><use xlink:href="#S"/></clipPath><g clip-path="url(#D)"><ellipse cx="1000" cy="1324.94" rx="100.863" ry="29.087" fill="#fff"/></g><use xlink:href="#T" fill="#fff"/><clipPath id="E"><use xlink:href="#T"/></clipPath><g clip-path="url(#E)"><ellipse cx="1238.62" cy="1177.63" rx="76.353" ry="101.863" fill="url(#L)"/><ellipse cx="1238.62" cy="1177.63" rx="31.31" ry="52.156" fill="url(#M)"/><path d="M1163.7 1197.4a135.28 135.28 0 0 1-1.439-19.763c0-56.22 34.212-101.863 76.352-101.863s76.353 45.643 76.353 101.863a135.36 135.36 0 0 1-1.452 19.854c-50.71-45.656-100.886-44.352-149.814-.09z" fill-opacity=".25"/><use xlink:href="#U" fill="#fff"/><ellipse cx="1238.62" cy="1254.45" rx="31.614" ry="22.679" fill="url(#N)"/><g fill="#fff"><ellipse cx="1250.86" cy="1269.12" rx="6.42" ry="5.304" fill-opacity=".5"/><ellipse cx="1252.72" cy="1212.49" rx="7.278" ry="7.524"/><ellipse cx="1244.61" cy="1202.89" rx="2.33" ry="2.409"/></g><path d="M1115.27 1039.4h265.412v104.97h-12.532c-80.722-74.56-158.208-72.973-236.528-3.446h-16.352V1039.4z" fill="#115751"/></g><use xlink:href="#V" fill="#fff"/><clipPath id="F"><use xlink:href="#V"/></clipPath><g clip-path="url(#F)"><ellipse cx="761.381" cy="1177.63" rx="76.353" ry="101.863" fill="url(#O)"/><ellipse cx="761.381" cy="1177.63" rx="31.31" ry="52.156" fill="url(#P)"/><path d="M686.467 1197.4a135.28 135.28 0 0 1-1.439-19.763c0-56.22 34.212-101.863 76.353-101.863s76.352 45.643 76.352 101.863a135.36 135.36 0 0 1-1.452 19.854c-50.71-45.656-100.886-44.352-149.814-.09z" fill-opacity=".25"/><path d="M744.176 1095.9c9.165 7.043 8.14 23.776-2.285 37.343s-26.332 18.865-35.497 11.822-8.14-23.776 2.286-37.343 26.332-18.865 35.496-11.822z" fill="#fff"/><ellipse cx="761.381" cy="1254.45" rx="31.614" ry="22.679" fill="url(#Q)"/><g fill="#fff"><ellipse cx="773.625" cy="1269.12" rx="6.42" ry="5.304" fill-opacity=".5"/><ellipse cx="775.482" cy="1212.49" rx="7.278" ry="7.524"/><ellipse cx="767.369" cy="1202.89" rx="2.33" ry="2.409"/></g><path d="M884.735 1039.4H619.323v104.97h12.532c80.722-74.56 158.208-72.973 236.528-3.446h16.352V1039.4z" fill="#115751"/></g><g fill="#115751"><path d="M1316.83 977.08a7.59 7.59 0 0 0 8.615-12.339c-17.315-15.007-44.93-23.254-73.17-23.515-28.8-.266-57.778 6.965-75.207 21.972a7.21 7.21 0 0 0-1.14 9.44c2.044 2.986 6 4 9.214 2.347 18.798-9.3 44.104-12.92 67.132-12.376 22.8.537 46.657 5.544 64.556 14.47zm-633.66 0a7.59 7.59 0 0 1-8.615-12.339c17.315-15.007 44.93-23.254 73.17-23.515 28.8-.266 57.778 6.965 75.207 21.972a7.21 7.21 0 0 1 1.14 9.44c-2.044 2.986-6 4-9.214 2.347-18.798-9.3-44.104-12.92-67.132-12.376-22.8.537-46.657 5.544-64.556 14.47z"/></g><g fill="#fff"><path d="M830.583 640.86c25.58 30.53 10.704 85.232-33.202 122.08s-100.32 41.975-125.9 11.444-10.705-85.232 33.2-122.08S805 610.33 830.583 640.86zM1316.8 758.106c11.383-3.002 23.548 5.613 27.15 19.225s-2.717 27.1-14.1 30.102-23.548-5.613-27.15-19.225 2.717-27.1 14.1-30.102zm46.37 4.53c5.262-2.3 11.997 1.45 15.03 8.373s1.225 14.4-4.037 16.713-11.998-1.45-15.032-8.374-1.225-14.4 4.038-16.712zM649.4 801.653c11.813 10.6 12.83 28.767 2.27 40.566s-28.725 12.78-40.54 2.2-12.83-28.768-2.27-40.567 28.725-12.78 40.54-2.2z"/></g></g><defs><radialGradient id="G" cx="0" cy="0" r="1" gradientTransform="matrix(5.24419e-05,1760,-1760,5.24419e-05,1000,1120)" xlink:href="#W"><stop offset="0" stop-color="#26bfb3"/><stop offset=".73" stop-color="#26bfb3"/><stop offset="1" stop-color="#22aba0"/></radialGradient><radialGradient id="H" cx="0" cy="0" r="1" gradientTransform="matrix(368.099,0,7.13673e-46,281.725,1000,1288.29)" xlink:href="#W"><stop offset="0" stop-color="#004b45" stop-opacity=".5"/><stop offset="1" stop-color="#004d46" stop-opacity="0"/></radialGradient><radialGradient id="I" cx="0" cy="0" r="1" gradientTransform="matrix(0,1000,-1000,0,1000,520)" xlink:href="#W"><stop offset="0" stop-color="#26bfb3"/><stop offset=".5" stop-color="#26bfb3"/><stop offset="1" stop-color="#1e968d"/></radialGradient><radialGradient id="J" cx="0" cy="0" r="1" gradientTransform="matrix(4.07451e-07,-100.973,274.594,2.6476e-06,710.807,1306.65)" xlink:href="#W"><stop offset="0" stop-color="#f594a7" stop-opacity=".5"/><stop offset="1" stop-color="#f594a7" stop-opacity="0"/></radialGradient><radialGradient id="K" cx="0" cy="0" r="1" gradientTransform="matrix(4.07451e-07,-100.973,274.594,2.6476e-06,1289.19,1306.65)" xlink:href="#W"><stop offset="0" stop-color="#f594a7" stop-opacity=".5"/><stop offset="1" stop-color="#f594a7" stop-opacity="0"/></radialGradient><linearGradient id="L" x1="1715.86" y1="1075.77" x2="1715.86" y2="1279.496" xlink:href="#W"><stop offset="0" stop-color="#115751"/><stop offset="1" stop-color="#26bfb3"/></linearGradient><linearGradient id="M" x1="1715.86" y1="1125.48" x2="1715.86" y2="1229.793" xlink:href="#W"><stop offset="0" stop-color="#26bfb3"/><stop offset="1" stop-color="#abeee9"/></linearGradient><linearGradient id="N" x1="1238.62" y1="1231.77" x2="1238.62" y2="1277.129" xlink:href="#W"><stop offset="0" stop-color="#fff" stop-opacity=".25"/><stop offset="1" stop-color="#fff" stop-opacity=".5"/></linearGradient><linearGradient id="O" x1="1238.62" y1="1075.77" x2="1238.62" y2="1279.496" xlink:href="#W"><stop offset="0" stop-color="#115751"/><stop offset="1" stop-color="#26bfb3"/></linearGradient><linearGradient id="P" x1="1238.62" y1="1125.48" x2="1238.62" y2="1229.793" xlink:href="#W"><stop offset="0" stop-color="#26bfb3"/><stop offset="1" stop-color="#abeee9"/></linearGradient><linearGradient id="Q" x1="761.381" y1="1231.77" x2="761.381" y2="1277.129" xlink:href="#W"><stop offset="0" stop-color="#fff" stop-opacity=".25"/><stop offset="1" stop-color="#fff" stop-opacity=".5"/></linearGradient><path id="R" d="M1000 1520c-124.777-.001-234.63-50.228-324.53-127.008-54.222-46.31-102.512-175.2-102.512-325.36 0-250.04 177.002-453.71 427.042-453.7s427.042 203.67 427.042 453.7c0 150.17-48.3 279.05-102.512 325.36C1234.63 1469.772 1124.777 1520 1000 1520z"/><path id="S" d="M905.07 1365.9c0 47.48 42.537 86.03 94.93 86.03s94.93-38.55 94.93-86.03c-18.76-19.33-54.84-35.025-94.93-35.025s-76.17 15.694-94.93 35.025z"/><path id="T" d="M1366.66 1150.23c-18.456 70.16-51.495 132.887-128.86 132.68-84.25-.227-96.708-76.47-105.582-137.572-1.835-12.634-2.94-27.526-1.92-40.086a29.98 29.98 0 0 1 11.94-21.633c61.21-45.617 143.718-52.512 212.622 2.775a44.95 44.95 0 0 1 16.525 41.589c-1.206 8.428-3.087 16.017-4.726 22.248z"/><path id="U" d="M1221.4 1095.9c9.165 7.043 8.14 23.776-2.285 37.343s-26.332 18.865-35.497 11.822-8.14-23.776 2.286-37.343 26.332-18.865 35.496-11.822z"/><path id="V" d="M633.344 1150.23c18.456 70.16 51.495 132.887 128.86 132.68 84.25-.227 96.708-76.47 105.582-137.572 1.835-12.634 2.94-27.526 1.92-40.086a29.98 29.98 0 0 0-11.94-21.633c-61.21-45.617-143.718-52.512-212.622 2.775a44.95 44.95 0 0 0-16.525 41.589c1.206 8.428 3.087 16.017 4.726 22.248z"/><linearGradient id="W" gradientUnits="userSpaceOnUse"/></defs></svg>