<?xml version="1.0" encoding="UTF-8" standalone="no"?><!DOCTYPE svg PUBLIC "-//W3C//DTD SVG 1.1//EN" "http://www.w3.org/Graphics/SVG/1.1/DTD/svg11.dtd"><svg width="100%" height="100%" viewBox="0 0 2000 2000" version="1.1" xmlns="http://www.w3.org/2000/svg" xmlns:xlink="http://www.w3.org/1999/xlink" xml:space="preserve" xmlns:serif="http://www.serif.com/" style="fill-rule:evenodd;clip-rule:evenodd;stroke-linejoin:round;stroke-miterlimit:2;"><rect id="Artboard2" x="0" y="0" width="2000" height="2000" style="fill:none;"/><clipPath id="_clip1"><rect x="0" y="0" width="2000" height="2000"/></clipPath><g clip-path="url(#_clip1)"><rect x="-0" y="0" width="2000" height="2000" style="fill:#26bfb3;"/><g><path d="M473.773,1175.28c-11.907,-54.945 -23.773,-116.448 -23.773,-195.282c0,-171.577 53.029,-310.875 144.245,-405.321c83.142,-86.086 219.708,-155.789 356.464,-150.687c11.032,-41.818 26.839,-76.975 43.496,-100.222c3.089,-4.31 6.844,-8.102 11.124,-11.233c41.201,-30.137 96.508,-57.652 162.284,-62.407c16.776,-1.213 33.037,6.09 43.275,19.435c10.238,13.345 13.081,30.943 7.565,46.832c-9.747,28.076 -34.059,69.893 -66.726,110.196c92.868,15.621 174.859,61.385 234.491,120.911c85.665,85.513 163.782,205.138 163.782,432.496c0,77.124 -10.732,139.882 -21.257,196.603c312.11,161.658 521.257,461.821 521.257,803.397c0,511.417 -468.844,930 -1050,930c-581.156,-0 -1050,-418.583 -1050,-930c0,-342.496 210.276,-643.356 523.773,-804.718Zm19.333,102.991c-265.881,146.592 -443.106,405.514 -443.106,701.727c0,459.959 427.32,830 950,830c522.68,-0 950,-370.041 950,-830c0,-294.236 -174.866,-551.675 -437.806,-698.766c-2.728,29.741 -2.182,59.518 4.629,91.398c4.495,21.041 -4.974,42.599 -23.511,53.523c-18.536,10.924 -41.983,8.765 -58.212,-5.361c-3.212,-2.795 -6.316,-5.76 -9.298,-8.865c-33.898,37.507 -72.971,67.768 -121.613,95.555c-18.823,10.752 -42.43,8.151 -58.46,-6.442c-16.03,-14.594 -20.831,-37.854 -11.888,-57.601c25.128,-55.483 28.759,-93.314 31.724,-133.347l-538.632,-0c5.795,45.424 17.293,81.628 39.645,134.506c8.596,20.336 2.837,43.903 -14.169,57.982c-17.007,14.08 -41.235,15.338 -59.608,3.097c-41.582,-27.704 -79.129,-54.881 -113.711,-93.497c-2.852,2.807 -5.876,5.605 -9.077,8.423c-16.287,14.342 -39.967,16.539 -58.615,5.439c-18.649,-11.1 -28.008,-32.962 -23.167,-54.117c7.737,-33.816 8.178,-64.057 4.875,-93.654Zm924.074,-43.932c-126.106,-54.094 -267.746,-84.341 -417.18,-84.341c-147.605,-0 -287.605,29.511 -412.482,82.244c2.628,15.214 4.715,30.328 6.019,45.578c10.101,3.781 18.9,10.82 24.828,20.336c2.567,4.122 5.158,8.106 7.784,11.964c-1.519,-14.793 -2.602,-30.534 -3.375,-47.79c-0.611,-13.635 4.379,-26.928 13.812,-36.793c9.433,-9.865 22.489,-15.445 36.138,-15.445l647.883,-0c14.503,-0 28.292,6.298 37.789,17.259c9.498,10.962 13.767,25.507 11.701,39.863c-3.333,23.16 -4.963,43.812 -6.783,63.914c8.668,-10.559 16.927,-21.842 24.903,-33.986c5.888,-8.964 14.345,-15.595 23.982,-19.25c1.119,-14.459 2.842,-28.925 4.981,-43.553Zm17.815,-100.873c8,-44.985 15.005,-94.684 15.005,-153.468c0,-189.713 -62.949,-290.368 -134.43,-361.722c-66.563,-66.445 -169.342,-110.858 -281.405,-93.86c-7.393,1.121 -14.714,0.556 -21.527,-1.443c-9.458,4.725 -20.242,6.352 -30.794,4.532c-119.004,-20.517 -242.963,41.362 -315.669,116.642c-75.347,78.015 -116.175,194.124 -116.175,335.851c0,60.068 7.871,109.025 16.904,152.68c131.978,-53.085 278.567,-82.68 433.096,-82.68c155.285,-0 302.551,29.885 434.995,83.468Z" style="fill:#fff;"/><g><ellipse cx="1000" cy="1980" rx="1000" ry="880" style="fill:url(#_Radial2);"/><clipPath id="_clip3"><ellipse cx="1000" cy="1980" rx="1000" ry="880"/></clipPath><g clip-path="url(#_clip3)"><ellipse cx="1000" cy="1268.3" rx="368.099" ry="281.725" style="fill:url(#_Radial4);"/><path d="M779.765,1495.03c24.806,40.187 114.95,72.813 220.235,72.813c105.285,0 195.429,-32.626 220.235,-72.813c-36.706,30.348 -122.754,54.986 -220.235,54.986c-97.481,-0 -183.529,-24.638 -220.235,-54.986Z" style="fill:#fff;"/></g><g><path d="M450.881,1448.75c32.718,48.049 7.432,132.42 -56.432,188.292c-63.863,55.872 -142.275,62.223 -174.993,14.174c-32.717,-48.049 -7.431,-132.42 56.432,-188.292c63.864,-55.872 142.275,-62.223 174.993,-14.174Z" style="fill:#fff;"/><path d="M205.51,1721.87c15.413,16.75 15.249,44.954 -0.365,62.945c-15.614,17.99 -40.803,18.997 -56.216,2.248c-15.412,-16.75 -15.249,-44.955 0.365,-62.945c15.614,-17.991 40.804,-18.998 56.216,-2.248Z" style="fill:#fff;"/><path d="M1582.15,1530.09c26.1,-16.951 63.732,-5.323 83.985,25.95c20.253,31.273 15.506,70.425 -10.594,87.376c-26.099,16.95 -63.732,5.322 -83.985,-25.951c-20.253,-31.273 -15.506,-70.424 10.594,-87.375Z" style="fill:#fff;"/><path d="M1702.27,1503.21c11.313,-10.135 31.311,-6.258 44.629,8.653c13.319,14.911 14.947,35.245 3.634,45.38c-11.313,10.135 -31.311,6.258 -44.629,-8.653c-13.319,-14.911 -14.947,-35.245 -3.634,-45.38Z" style="fill:#fff;"/></g></g><g><path d="M990.339,478.234c8.312,-52.854 25.307,-98.543 44.509,-125.341c34.661,-25.353 81.036,-48.893 136.37,-52.893c-15.799,45.513 -75.869,132.112 -144.552,174.983c129.089,-19.58 247.553,31.369 324.228,107.908c78.573,78.433 149.106,188.574 149.106,397.109c-0,176.535 -59.52,274.612 -32.074,403.079c-19.175,-16.69 -33.11,-41.801 -37.917,-58.486c-39.871,60.702 -85.851,102.475 -150.621,139.475c39.057,-86.241 30.928,-132.457 41.219,-203.974l-647.883,-0c3.638,81.193 14.839,126.001 47.8,203.974c-54.79,-36.504 -102.284,-71.538 -144.6,-139.475c-7.709,23.311 -18.333,40.331 -38.953,58.486c30.985,-135.419 -36.971,-220.428 -36.971,-403.079c0,-156.651 46.929,-284.356 130.21,-370.586c82.805,-85.737 224.595,-154.548 360.129,-131.18Z" style="fill:url(#_Radial5);"/><path d="M639.229,1237.62c0,-0 65.541,-27.58 25.56,-122.593c-15.221,-36.173 -56.947,-53.183 -93.12,-37.961c-36.173,15.221 -53.183,56.947 -37.962,93.12c39.981,95.013 105.522,67.434 105.522,67.434Z" style="fill:#fcd4d2;"/><path d="M1360.77,1237.62c-0,-0 -65.541,-27.58 -25.56,-122.593c15.221,-36.173 56.947,-53.183 93.12,-37.961c36.173,15.221 53.183,56.947 37.962,93.12c-39.981,95.013 -105.522,67.434 -105.522,67.434Z" style="fill:#fcd4d2;"/><path d="M1000,1500c-124.777,-0.001 -234.63,-50.228 -324.53,-127.008c-54.222,-46.309 -102.512,-175.19 -102.512,-325.359c-0,-250.039 177.002,-453.709 427.042,-453.71c250.04,0.001 427.042,203.671 427.042,453.71c0,150.169 -48.29,279.05 -102.512,325.359c-89.9,76.78 -199.753,127.007 -324.53,127.008Z" style="fill:#fde3e2;"/><clipPath id="_clip6"><path d="M1000,1500c-124.777,-0.001 -234.63,-50.228 -324.53,-127.008c-54.222,-46.309 -102.512,-175.19 -102.512,-325.359c-0,-250.039 177.002,-453.709 427.042,-453.71c250.04,0.001 427.042,203.671 427.042,453.71c0,150.169 -48.29,279.05 -102.512,325.359c-89.9,76.78 -199.753,127.007 -324.53,127.008Z"/></clipPath><g clip-path="url(#_clip6)"><ellipse cx="710.807" cy="1286.65" rx="274.594" ry="100.973" style="fill:url(#_Radial7);"/><ellipse cx="1289.19" cy="1286.65" rx="274.594" ry="100.973" style="fill:url(#_Radial8);"/><path d="M1016.33,581.604c-255.912,6.782 -382.422,109.881 -443.333,240.615c-33.837,72.624 -9.172,119.765 1.93,179.991c7.089,38.454 -1.473,116.568 -1.971,160.204c49.077,-41.928 85.09,-128.373 87.03,-165.514c104.724,78.903 281.648,116.57 441.841,69.106c-39.758,-31.306 -65.168,-72.764 -81.628,-103.696c83.105,65.812 196.491,122.395 362.484,90.585c1.409,22.739 48.491,81.658 60.357,108.356c0,0 -6.368,-72.603 25.738,-126.096c7.423,-12.369 0.106,-47.485 2.29,-63.379c22.703,-165.258 -195.932,-397.03 -454.738,-390.172Z" style="fill:#fcd4d2;"/></g><path d="M998.533,569.738c-255.912,6.782 -361.004,129.626 -416.634,262.693c-24.927,59.625 -33.157,80.35 -34.298,118.516c-3.082,103.07 37.413,123.745 16.752,209.716c49.904,-38.92 68.328,-126.256 73.728,-164.054c103.829,61.53 311.488,94.163 453.882,67.464c-38.565,-21.708 -110.805,-83.064 -127.562,-115.696c88.997,81.745 269.956,112.729 403.451,83.064c5.86,35.392 29.451,88.71 71.056,124.973c-14.832,-71.198 8.765,-131.558 12.007,-219.903c6.118,-166.697 -193.577,-373.631 -452.382,-366.773Z" style="fill:url(#_Radial9);"/><path d="M905.07,1345.89c0,47.481 42.537,86.03 94.93,86.03c52.393,-0 94.93,-38.549 94.93,-86.03c-18.761,-19.331 -54.839,-35.025 -94.93,-35.025c-40.091,-0 -76.169,15.694 -94.93,35.025Z" style="fill:#ff8a9e;"/><clipPath id="_clip10"><path d="M905.07,1345.89c0,47.481 42.537,86.03 94.93,86.03c52.393,-0 94.93,-38.549 94.93,-86.03c-18.761,-19.331 -54.839,-35.025 -94.93,-35.025c-40.091,-0 -76.169,15.694 -94.93,35.025Z"/></clipPath><g clip-path="url(#_clip10)"><ellipse cx="1000" cy="1304.94" rx="100.863" ry="29.087" style="fill:#fff;"/></g><g><g><g><path d="M1366.66,1130.23c-18.456,70.161 -51.495,132.887 -128.86,132.678c-84.25,-0.227 -96.708,-76.47 -105.582,-137.572c-2.405,-16.561 -3.557,-37.001 -0.308,-50.983c0.506,-2.036 1.653,-3.855 3.273,-5.188c65.368,-53.45 158.136,-61.203 231.936,7.865c3.508,3.301 5.525,7.884 5.588,12.7c0.153,15.691 -3.29,30.016 -6.047,40.5Z" style="fill:#fff;"/><ellipse cx="1238.62" cy="1157.63" rx="76.353" ry="101.863" style="fill:url(#_Linear11);"/><clipPath id="_clip12"><ellipse cx="1238.62" cy="1157.63" rx="76.353" ry="101.863"/></clipPath><g clip-path="url(#_clip12)"><ellipse cx="1238.62" cy="1157.63" rx="31.31" ry="52.156" style="fill:url(#_Linear13);"/><path d="M1330.29,1009.62l-183.331,0l-0,184.655c59.554,-66.178 121.104,-68.628 183.331,0l0,-184.655Z" style="fill-opacity:0.25;"/></g><g><path d="M1221.41,1075.9c9.165,7.042 8.141,23.775 -2.285,37.343c-10.427,13.567 -26.332,18.864 -35.497,11.821c-9.164,-7.042 -8.14,-23.775 2.286,-37.343c10.426,-13.567 26.332,-18.864 35.496,-11.821Z" style="fill:#fff;"/><ellipse cx="1238.62" cy="1234.45" rx="31.614" ry="22.679" style="fill:url(#_Linear14);"/><ellipse cx="1250.86" cy="1249.12" rx="6.42" ry="5.304" style="fill:#fff;fill-opacity:0.5;"/><ellipse cx="1252.72" cy="1192.49" rx="7.278" ry="7.524" style="fill:#fff;"/><ellipse cx="1244.61" cy="1182.89" rx="2.33" ry="2.409" style="fill:#fff;"/></g><path d="M1368.14,1124.41c1.464,-6.009 2.907,-12.91 3.741,-20.375c1.507,-13.499 -3.903,-26.847 -14.384,-35.487c-70.643,-58.617 -156.206,-50.882 -218.477,-2.443c-4.452,3.511 -7.384,8.599 -8.191,14.212c-1.653,12.093 -0.894,27.26 0.791,40.619c78.32,-69.527 155.798,-71.085 236.52,3.474Z" style="fill:#115751;"/></g><g><path d="M633.344,1130.23c18.456,70.161 51.495,132.887 128.86,132.678c84.25,-0.227 96.708,-76.47 105.582,-137.572c2.405,-16.561 3.557,-37.001 0.308,-50.983c-0.506,-2.036 -1.653,-3.855 -3.273,-5.188c-65.368,-53.45 -158.136,-61.203 -231.936,7.865c-3.508,3.301 -5.525,7.884 -5.588,12.7c-0.153,15.691 3.29,30.016 6.047,40.5Z" style="fill:#fff;"/><ellipse cx="761.381" cy="1157.63" rx="76.353" ry="101.863" style="fill:url(#_Linear15);"/><clipPath id="_clip16"><ellipse cx="761.381" cy="1157.63" rx="76.353" ry="101.863"/></clipPath><g clip-path="url(#_clip16)"><ellipse cx="761.381" cy="1157.63" rx="31.31" ry="52.156" style="fill:url(#_Linear17);"/><path d="M853.046,1009.62l-183.331,0l-0,184.655c59.554,-66.178 121.104,-68.628 183.331,0l0,-184.655Z" style="fill-opacity:0.25;"/></g><g><path d="M744.176,1075.9c9.165,7.042 8.141,23.775 -2.285,37.343c-10.427,13.567 -26.332,18.864 -35.497,11.821c-9.164,-7.042 -8.14,-23.775 2.286,-37.343c10.426,-13.567 26.332,-18.864 35.496,-11.821Z" style="fill:#fff;"/><ellipse cx="761.381" cy="1234.45" rx="31.614" ry="22.679" style="fill:url(#_Linear18);"/><ellipse cx="773.625" cy="1249.12" rx="6.42" ry="5.304" style="fill:#fff;fill-opacity:0.5;"/><ellipse cx="775.482" cy="1192.49" rx="7.278" ry="7.524" style="fill:#fff;"/><ellipse cx="767.369" cy="1182.89" rx="2.33" ry="2.409" style="fill:#fff;"/></g><path d="M631.862,1124.41c-1.464,-6.009 -2.907,-12.91 -3.741,-20.375c-1.507,-13.499 3.903,-26.847 14.384,-35.487c70.643,-58.617 156.206,-50.882 218.477,-2.443c4.452,3.511 7.384,8.599 8.191,14.212c1.653,12.093 0.894,27.26 -0.791,40.619c-78.32,-69.527 -155.798,-71.085 -236.52,3.474Z" style="fill:#115751;"/></g></g></g><g><path d="M1316.83,957.079c3.381,1.768 7.55,0.749 9.735,-2.38c2.184,-3.129 1.705,-7.393 -1.12,-9.959c-17.315,-15.007 -44.929,-23.254 -73.171,-23.515c-28.799,-0.266 -57.778,6.965 -75.207,21.972c-2.697,2.414 -3.184,6.454 -1.139,9.44c2.046,2.985 5.989,3.99 9.214,2.347c18.798,-9.3 44.104,-12.919 67.132,-12.376c22.79,0.537 46.657,5.544 64.556,14.471Z" style="fill:#115751;"/><path d="M683.17,957.079c-3.381,1.768 -7.55,0.749 -9.735,-2.38c-2.184,-3.129 -1.705,-7.393 1.12,-9.959c17.315,-15.007 44.929,-23.254 73.171,-23.515c28.799,-0.266 57.778,6.965 75.207,21.972c2.697,2.414 3.184,6.454 1.139,9.44c-2.046,2.985 -5.989,3.99 -9.214,2.347c-18.798,-9.3 -44.104,-12.919 -67.132,-12.376c-22.79,0.537 -46.657,5.544 -64.556,14.471Z" style="fill:#115751;"/></g><g><path d="M830.583,620.861c25.581,30.53 10.704,85.232 -33.202,122.079c-43.905,36.847 -100.32,41.975 -125.901,11.444c-25.582,-30.53 -10.705,-85.232 33.201,-122.079c43.906,-36.847 100.32,-41.975 125.902,-11.444Z" style="fill:#fff;"/><path d="M1316.81,738.106c11.383,-3.002 23.548,5.613 27.149,19.225c3.601,13.613 -2.717,27.101 -14.1,30.102c-11.383,3.002 -23.548,-5.613 -27.149,-19.225c-3.601,-13.612 2.717,-27.101 14.1,-30.102Z" style="fill:#fff;"/><path d="M1363.17,742.636c5.262,-2.301 11.997,1.45 15.031,8.373c3.034,6.923 1.225,14.411 -4.037,16.713c-5.263,2.301 -11.998,-1.451 -15.032,-8.374c-3.034,-6.922 -1.225,-14.411 4.038,-16.712Z" style="fill:#fff;"/><path d="M649.39,781.653c11.813,10.59 12.831,28.767 2.271,40.566c-10.56,11.799 -28.725,12.78 -40.539,2.191c-11.813,-10.59 -12.831,-28.768 -2.271,-40.567c10.56,-11.799 28.725,-12.78 40.539,-2.19Z" style="fill:#fff;"/></g></g></g></g><defs><radialGradient id="_Radial2" cx="0" cy="0" r="1" gradientUnits="userSpaceOnUse" gradientTransform="matrix(5.24419e-05,1760,-1760,5.24419e-05,1000,1100)"><stop offset="0" style="stop-color:#26bfb3;stop-opacity:1"/><stop offset="0.73" style="stop-color:#26bfb3;stop-opacity:1"/><stop offset="1" style="stop-color:#22aba0;stop-opacity:1"/></radialGradient><radialGradient id="_Radial4" cx="0" cy="0" r="1" gradientUnits="userSpaceOnUse" gradientTransform="matrix(368.099,0,3.56837e-46,281.725,1000,1268.29)"><stop offset="0" style="stop-color:#004b45;stop-opacity:0.5"/><stop offset="1" style="stop-color:#004d46;stop-opacity:0"/></radialGradient><radialGradient id="_Radial5" cx="0" cy="0" r="1" gradientUnits="userSpaceOnUse" gradientTransform="matrix(0,1000,-1000,0,1000,500)"><stop offset="0" style="stop-color:#26bfb3;stop-opacity:1"/><stop offset="0.5" style="stop-color:#26bfb3;stop-opacity:1"/><stop offset="1" style="stop-color:#1e968d;stop-opacity:1"/></radialGradient><radialGradient id="_Radial7" cx="0" cy="0" r="1" gradientUnits="userSpaceOnUse" gradientTransform="matrix(4.07451e-07,-100.973,274.594,2.6476e-06,710.807,1286.65)"><stop offset="0" style="stop-color:#f594a7;stop-opacity:0.5"/><stop offset="1" style="stop-color:#f594a7;stop-opacity:0"/></radialGradient><radialGradient id="_Radial8" cx="0" cy="0" r="1" gradientUnits="userSpaceOnUse" gradientTransform="matrix(4.07451e-07,-100.973,274.594,2.6476e-06,1289.19,1286.65)"><stop offset="0" style="stop-color:#f594a7;stop-opacity:0.5"/><stop offset="1" style="stop-color:#f594a7;stop-opacity:0"/></radialGradient><radialGradient id="_Radial9" cx="0" cy="0" r="1" gradientUnits="userSpaceOnUse" gradientTransform="matrix(0,1000,-1000,0,1000,500)"><stop offset="0" style="stop-color:#26bfb3;stop-opacity:1"/><stop offset="0.5" style="stop-color:#26bfb3;stop-opacity:1"/><stop offset="1" style="stop-color:#1e968d;stop-opacity:1"/></radialGradient><linearGradient id="_Linear11" x1="0" y1="0" x2="1" y2="0" gradientUnits="userSpaceOnUse" gradientTransform="matrix(1.24746e-14,203.726,-203.726,1.24746e-14,1238.62,1055.77)"><stop offset="0" style="stop-color:#115751;stop-opacity:1"/><stop offset="1" style="stop-color:#26bfb3;stop-opacity:1"/></linearGradient><linearGradient id="_Linear13" x1="0" y1="0" x2="1" y2="0" gradientUnits="userSpaceOnUse" gradientTransform="matrix(-3.09733e-12,104.313,-104.313,-3.09733e-12,1238.62,1105.48)"><stop offset="0" style="stop-color:#26bfb3;stop-opacity:1"/><stop offset="1" style="stop-color:#abeee9;stop-opacity:1"/></linearGradient><linearGradient id="_Linear14" x1="0" y1="0" x2="1" y2="0" gradientUnits="userSpaceOnUse" gradientTransform="matrix(3.34656e-12,45.3586,-45.3586,3.34656e-12,1238.62,1211.77)"><stop offset="0" style="stop-color:#fff;stop-opacity:0.25"/><stop offset="1" style="stop-color:#fff;stop-opacity:0.5"/></linearGradient><linearGradient id="_Linear15" x1="0" y1="0" x2="1" y2="0" gradientUnits="userSpaceOnUse" gradientTransform="matrix(1.24746e-14,203.726,-203.726,1.24746e-14,1238.62,1055.77)"><stop offset="0" style="stop-color:#115751;stop-opacity:1"/><stop offset="1" style="stop-color:#26bfb3;stop-opacity:1"/></linearGradient><linearGradient id="_Linear17" x1="0" y1="0" x2="1" y2="0" gradientUnits="userSpaceOnUse" gradientTransform="matrix(-3.09733e-12,104.313,-104.313,-3.09733e-12,1238.62,1105.48)"><stop offset="0" style="stop-color:#26bfb3;stop-opacity:1"/><stop offset="1" style="stop-color:#abeee9;stop-opacity:1"/></linearGradient><linearGradient id="_Linear18" x1="0" y1="0" x2="1" y2="0" gradientUnits="userSpaceOnUse" gradientTransform="matrix(3.34656e-12,45.3586,-45.3586,3.34656e-12,761.381,1211.77)"><stop offset="0" style="stop-color:#fff;stop-opacity:0.25"/><stop offset="1" style="stop-color:#fff;stop-opacity:0.5"/></linearGradient></defs></svg>