<?xml version="1.0" encoding="UTF-8"?>
<!DOCTYPE svg  PUBLIC '-//W3C//DTD SVG 1.1//EN'  'http://www.w3.org/Graphics/SVG/1.1/DTD/svg11.dtd'>
<svg clip-rule="evenodd" fill-rule="evenodd" stroke-linecap="round" stroke-linejoin="round" stroke-miterlimit="1.5" version="1.1" viewBox="0 0 2e3 2e3" xml:space="preserve" xmlns="http://www.w3.org/2000/svg"><rect width="2e3" height="2e3" fill="none"/><clipPath id="g"><rect width="2e3" height="2e3"/></clipPath><g clip-path="url(#g)"><rect width="2e3" height="2e3" fill="#26bfb3"/><path d="m530.85 1222.9c-13.192-62.008-30.854-129.75-30.854-222.86 0-156.65 46.929-284.36 130.21-370.59 82.805-85.737 224.6-154.55 360.13-131.18 8.312-52.854 25.307-98.543 44.509-125.34 34.661-25.353 81.036-48.893 136.37-52.893-15.799 45.513-75.869 132.11-144.55 174.98 129.09-19.58 247.55 31.369 324.23 107.91 78.573 78.433 149.11 188.57 149.11 397.11-0 90.615-15.682 160.56-27.209 224.56 313.75 148.53 527.21 440.22 527.21 775.44 0 485.68-448.08 880-1e3 880s-1e3 -394.32-1e3 -880c0-336.53 215.13-629.2 530.85-777.14z" fill="none" stroke="#fff" stroke-width="80px"/><ellipse cx="1e3" cy="2e3" rx="1e3" ry="880" fill="url(#k)"/><clipPath id="c"><ellipse cx="1e3" cy="2e3" rx="1e3" ry="880"/></clipPath><g clip-path="url(#c)"><ellipse cx="1e3" cy="1288.3" rx="368.1" ry="281.72" fill="url(#j)"/><path d="m779.76 1515c24.806 40.187 114.95 72.813 220.24 72.813s195.43-32.626 220.24-72.813c-36.706 30.348-122.75 54.986-220.24 54.986s-183.53-24.638-220.24-54.986z" fill="#fff"/></g><g fill="#fff"><path d="m450.88 1468.8c32.718 48.049 7.432 132.42-56.432 188.29-63.863 55.872-142.28 62.223-174.99 14.174-32.717-48.049-7.431-132.42 56.432-188.29 63.864-55.872 142.28-62.223 174.99-14.174z"/><path d="m205.51 1741.9c15.413 16.75 15.249 44.954-0.365 62.945-15.614 17.99-40.803 18.997-56.216 2.248-15.412-16.75-15.249-44.955 0.365-62.945 15.614-17.991 40.804-18.998 56.216-2.248z"/><path d="m1582.2 1550.1c26.1-16.951 63.732-5.323 83.985 25.95s15.506 70.425-10.594 87.376c-26.099 16.95-63.732 5.322-83.985-25.951s-15.506-70.424 10.594-87.375z"/><path d="m1702.3 1523.2c11.313-10.135 31.311-6.258 44.629 8.653 13.319 14.911 14.947 35.245 3.634 45.38s-31.311 6.258-44.629-8.653c-13.319-14.911-14.947-35.245-3.634-45.38z"/></g><path d="m990.34 498.23c8.312-52.854 25.307-98.543 44.509-125.34 34.661-25.353 81.036-48.893 136.37-52.893-15.799 45.513-75.869 132.11-144.55 174.98 129.09-19.58 247.55 31.369 324.23 107.91 78.573 78.433 149.11 188.57 149.11 397.11-0 176.54-59.52 274.61-32.074 403.08-19.175-16.69-33.11-41.801-37.917-58.486-39.871 60.702-85.851 102.48-150.62 139.48 39.057-86.241 30.928-132.46 41.219-203.97h-647.88c3.638 81.193 14.839 126 47.8 203.97-54.79-36.504-102.28-71.538-144.6-139.48-7.709 23.311-18.333 40.331-38.953 58.486 30.985-135.42-36.971-220.43-36.971-403.08 0-156.65 46.929-284.36 130.21-370.59 82.805-85.737 224.6-154.55 360.13-131.18z" fill="url(#a)"/><path d="m639.23 1257.6s65.541-27.58 25.56-122.59c-15.221-36.173-56.947-53.183-93.12-37.961-36.173 15.221-53.183 56.947-37.962 93.12 39.981 95.013 105.52 67.434 105.52 67.434z" fill="#fcd4d2"/><path d="m1360.8 1257.6s-65.541-27.58-25.56-122.59c15.221-36.173 56.947-53.183 93.12-37.961 36.173 15.221 53.183 56.947 37.962 93.12-39.981 95.013-105.52 67.434-105.52 67.434z" fill="#fcd4d2"/><path d="m1e3 1520c-124.78-1e-3 -234.63-50.228-324.53-127.01-54.222-46.309-102.51-175.19-102.51-325.36-0-250.04 177-453.71 427.04-453.71 250.04 1e-3 427.04 203.67 427.04 453.71 0 150.17-48.29 279.05-102.51 325.36-89.9 76.78-199.75 127.01-324.53 127.01z" fill="#fde3e2"/><clipPath id="b"><path d="m1e3 1520c-124.78-1e-3 -234.63-50.228-324.53-127.01-54.222-46.309-102.51-175.19-102.51-325.36-0-250.04 177-453.71 427.04-453.71 250.04 1e-3 427.04 203.67 427.04 453.71 0 150.17-48.29 279.05-102.51 325.36-89.9 76.78-199.75 127.01-324.53 127.01z"/></clipPath><g clip-path="url(#b)"><ellipse cx="710.81" cy="1306.6" rx="274.59" ry="100.97" fill="url(#i)"/><ellipse cx="1289.2" cy="1306.6" rx="274.59" ry="100.97" fill="url(#h)"/><path d="m1016.3 601.6c-255.91 6.782-382.42 109.88-443.33 240.62-33.837 72.624-9.172 119.76 1.93 179.99 7.089 38.454-1.473 116.57-1.971 160.2 49.077-41.928 85.09-128.37 87.03-165.51 104.72 78.903 281.65 116.57 441.84 69.106-39.758-31.306-65.168-72.764-81.628-103.7 83.105 65.812 196.49 122.4 362.48 90.585 1.409 22.739 48.491 81.658 60.357 108.36 0 0-6.368-72.603 25.738-126.1 7.423-12.369 0.106-47.485 2.29-63.379 22.703-165.26-195.93-397.03-454.74-390.17z" fill="#fcd4d2"/></g><path d="m998.53 589.74c-255.91 6.782-361 129.63-416.63 262.69-24.927 59.625-33.157 80.35-34.298 118.52-3.082 103.07 37.413 123.74 16.752 209.72 49.904-38.92 68.328-126.26 73.728-164.05 103.83 61.53 311.49 94.163 453.88 67.464-38.565-21.708-110.8-83.064-127.56-115.7 88.997 81.745 269.96 112.73 403.45 83.064 5.86 35.392 29.451 88.71 71.056 124.97-14.832-71.198 8.765-131.56 12.007-219.9 6.118-166.7-193.58-373.63-452.38-366.77z" fill="url(#a)"/><path d="m905.07 1365.9c0 47.481 42.537 86.03 94.93 86.03s94.93-38.549 94.93-86.03c-18.761-19.331-54.839-35.025-94.93-35.025s-76.169 15.694-94.93 35.025z" fill="#ff8a9e"/><clipPath id="f"><path d="m905.07 1365.9c0 47.481 42.537 86.03 94.93 86.03s94.93-38.549 94.93-86.03c-18.761-19.331-54.839-35.025-94.93-35.025s-76.169 15.694-94.93 35.025z"/></clipPath><g clip-path="url(#f)"><ellipse cx="1e3" cy="1324.9" rx="100.86" ry="29.087" fill="#fff"/></g><path d="m1366.7 1150.2c-18.456 70.161-51.495 132.89-128.86 132.68-84.25-0.227-96.708-76.47-105.58-137.57-1.835-12.634-2.94-27.526-1.919-40.086 0.685-8.592 5.035-16.474 11.94-21.633 61.209-45.617 143.72-52.512 212.62 2.775 12.509 9.941 18.8 25.775 16.525 41.589-1.206 8.428-3.087 16.017-4.726 22.248z" fill="#fff"/><clipPath id="e"><path d="m1366.7 1150.2c-18.456 70.161-51.495 132.89-128.86 132.68-84.25-0.227-96.708-76.47-105.58-137.57-1.835-12.634-2.94-27.526-1.919-40.086 0.685-8.592 5.035-16.474 11.94-21.633 61.209-45.617 143.72-52.512 212.62 2.775 12.509 9.941 18.8 25.775 16.525 41.589-1.206 8.428-3.087 16.017-4.726 22.248z"/></clipPath><g clip-path="url(#e)"><ellipse cx="1238.6" cy="1177.6" rx="76.353" ry="101.86" fill="url(#q)"/><ellipse cx="1238.6" cy="1177.6" rx="31.31" ry="52.156" fill="url(#p)"/><path d="m1163.7 1197.4c-0.944-6.389-1.439-13-1.439-19.763-0-56.22 34.212-101.86 76.352-101.86 42.141 0 76.353 45.643 76.353 101.86 0 6.791-0.499 13.428-1.452 19.854-50.709-45.656-100.89-44.352-149.81-0.091z" fill-opacity=".25"/><path d="m1221.4 1095.9c9.165 7.043 8.141 23.776-2.285 37.343-10.427 13.568-26.332 18.865-35.497 11.822-9.164-7.043-8.14-23.776 2.286-37.343 10.426-13.568 26.332-18.865 35.496-11.822z" fill="#fff"/><ellipse cx="1238.6" cy="1254.4" rx="31.614" ry="22.679" fill="url(#o)"/><ellipse cx="1250.9" cy="1269.1" rx="6.42" ry="5.304" fill="#fff" fill-opacity=".5"/><ellipse cx="1252.7" cy="1212.5" rx="7.278" ry="7.524" fill="#fff"/><ellipse cx="1244.6" cy="1202.9" rx="2.33" ry="2.409" fill="#fff"/><path d="m1115.3 1039.4h265.41v104.97h-12.532c-80.722-74.559-158.21-72.973-236.53-3.446h-16.352v-101.52z" fill="#115751"/></g><path d="m633.34 1150.2c18.456 70.161 51.495 132.89 128.86 132.68 84.25-0.227 96.708-76.47 105.58-137.57 1.835-12.634 2.94-27.526 1.919-40.086-0.685-8.592-5.035-16.474-11.94-21.633-61.209-45.617-143.72-52.512-212.62 2.775-12.509 9.941-18.8 25.775-16.525 41.589 1.206 8.428 3.087 16.017 4.726 22.248z" fill="#fff"/><clipPath id="d"><path d="m633.34 1150.2c18.456 70.161 51.495 132.89 128.86 132.68 84.25-0.227 96.708-76.47 105.58-137.57 1.835-12.634 2.94-27.526 1.919-40.086-0.685-8.592-5.035-16.474-11.94-21.633-61.209-45.617-143.72-52.512-212.62 2.775-12.509 9.941-18.8 25.775-16.525 41.589 1.206 8.428 3.087 16.017 4.726 22.248z"/></clipPath><g clip-path="url(#d)"><ellipse cx="761.38" cy="1177.6" rx="76.353" ry="101.86" fill="url(#n)"/><ellipse cx="761.38" cy="1177.6" rx="31.31" ry="52.156" fill="url(#m)"/><path d="m686.47 1197.4c-0.944-6.389-1.439-13-1.439-19.763-0-56.22 34.212-101.86 76.353-101.86 42.14 0 76.352 45.643 76.352 101.86 0 6.791-0.499 13.428-1.452 19.854-50.709-45.656-100.89-44.352-149.81-0.091z" fill-opacity=".25"/><path d="m744.18 1095.9c9.165 7.043 8.141 23.776-2.285 37.343-10.427 13.568-26.332 18.865-35.497 11.822-9.164-7.043-8.14-23.776 2.286-37.343 10.426-13.568 26.332-18.865 35.496-11.822z" fill="#fff"/><ellipse cx="761.38" cy="1254.4" rx="31.614" ry="22.679" fill="url(#l)"/><ellipse cx="773.62" cy="1269.1" rx="6.42" ry="5.304" fill="#fff" fill-opacity=".5"/><ellipse cx="775.48" cy="1212.5" rx="7.278" ry="7.524" fill="#fff"/><ellipse cx="767.37" cy="1202.9" rx="2.33" ry="2.409" fill="#fff"/><path d="m884.74 1039.4h-265.41v104.97h12.532c80.722-74.559 158.21-72.973 236.53-3.446h16.352v-101.52z" fill="#115751"/></g><g fill="#115751"><path d="m1316.8 977.08c3.381 1.768 7.55 0.749 9.735-2.38 2.184-3.129 1.705-7.393-1.12-9.959-17.315-15.007-44.929-23.254-73.171-23.515-28.799-0.266-57.778 6.965-75.207 21.972-2.697 2.414-3.184 6.454-1.139 9.44 2.046 2.985 5.989 3.99 9.214 2.347 18.798-9.3 44.104-12.919 67.132-12.376 22.79 0.537 46.657 5.544 64.556 14.471z"/><path d="m683.17 977.08c-3.381 1.768-7.55 0.749-9.735-2.38-2.184-3.129-1.705-7.393 1.12-9.959 17.315-15.007 44.929-23.254 73.171-23.515 28.799-0.266 57.778 6.965 75.207 21.972 2.697 2.414 3.184 6.454 1.139 9.44-2.046 2.985-5.989 3.99-9.214 2.347-18.798-9.3-44.104-12.919-67.132-12.376-22.79 0.537-46.657 5.544-64.556 14.471z"/></g><g fill="#fff"><path d="m830.58 640.86c25.581 30.53 10.704 85.232-33.202 122.08-43.905 36.847-100.32 41.975-125.9 11.444-25.582-30.53-10.705-85.232 33.201-122.08s100.32-41.975 125.9-11.444z"/><path d="m1316.8 758.11c11.383-3.002 23.548 5.613 27.149 19.225 3.601 13.613-2.717 27.101-14.1 30.102-11.383 3.002-23.548-5.613-27.149-19.225s2.717-27.101 14.1-30.102z"/><path d="m1363.2 762.64c5.262-2.301 11.997 1.45 15.031 8.373s1.225 14.411-4.037 16.713c-5.263 2.301-11.998-1.451-15.032-8.374-3.034-6.922-1.225-14.411 4.038-16.712z"/><path d="m649.39 801.65c11.813 10.59 12.831 28.767 2.271 40.566s-28.725 12.78-40.539 2.191c-11.813-10.59-12.831-28.768-2.271-40.567s28.725-12.78 40.539-2.19z"/></g></g><defs><radialGradient id="k" cx="0" cy="0" r="1" gradientTransform="matrix(5.2442e-5 1760 -1760 5.2442e-5 1e3 1120)" gradientUnits="userSpaceOnUse"><stop stop-color="#26bfb3" offset="0"/><stop stop-color="#26bfb3" offset=".73"/><stop stop-color="#22aba0" offset="1"/></radialGradient><radialGradient id="j" cx="0" cy="0" r="1" gradientTransform="matrix(368.1 0 7.1367e-46 281.72 1e3 1288.3)" gradientUnits="userSpaceOnUse"><stop stop-color="#004b45" stop-opacity=".5" offset="0"/><stop stop-color="#004d46" stop-opacity="0" offset="1"/></radialGradient><radialGradient id="a" cx="0" cy="0" r="1" gradientTransform="matrix(0 1e3 -1e3 0 1e3 520)" gradientUnits="userSpaceOnUse"><stop stop-color="#26bfb3" offset="0"/><stop stop-color="#26bfb3" offset=".5"/><stop stop-color="#1e968d" offset="1"/></radialGradient><radialGradient id="i" cx="0" cy="0" r="1" gradientTransform="matrix(4.0745e-7 -100.97 274.59 2.6476e-6 710.81 1306.6)" gradientUnits="userSpaceOnUse"><stop stop-color="#f594a7" stop-opacity=".5" offset="0"/><stop stop-color="#f594a7" stop-opacity="0" offset="1"/></radialGradient><radialGradient id="h" cx="0" cy="0" r="1" gradientTransform="matrix(4.0745e-7 -100.97 274.59 2.6476e-6 1289.2 1306.6)" gradientUnits="userSpaceOnUse"><stop stop-color="#f594a7" stop-opacity=".5" offset="0"/><stop stop-color="#f594a7" stop-opacity="0" offset="1"/></radialGradient><linearGradient id="q" x2="1" gradientTransform="matrix(1.2475e-14 203.73 -203.73 1.2475e-14 1715.9 1075.8)" gradientUnits="userSpaceOnUse"><stop stop-color="#115751" offset="0"/><stop stop-color="#26bfb3" offset="1"/></linearGradient><linearGradient id="p" x2="1" gradientTransform="matrix(-3.0973e-12 104.31 -104.31 -3.0973e-12 1715.9 1125.5)" gradientUnits="userSpaceOnUse"><stop stop-color="#26bfb3" offset="0"/><stop stop-color="#abeee9" offset="1"/></linearGradient><linearGradient id="o" x2="1" gradientTransform="matrix(3.3466e-12 45.359 -45.359 3.3466e-12 1238.6 1231.8)" gradientUnits="userSpaceOnUse"><stop stop-color="#fff" stop-opacity=".25" offset="0"/><stop stop-color="#fff" stop-opacity=".5" offset="1"/></linearGradient><linearGradient id="n" x2="1" gradientTransform="matrix(1.2475e-14 203.73 -203.73 1.2475e-14 1238.6 1075.8)" gradientUnits="userSpaceOnUse"><stop stop-color="#115751" offset="0"/><stop stop-color="#26bfb3" offset="1"/></linearGradient><linearGradient id="m" x2="1" gradientTransform="matrix(-3.0973e-12 104.31 -104.31 -3.0973e-12 1238.6 1125.5)" gradientUnits="userSpaceOnUse"><stop stop-color="#26bfb3" offset="0"/><stop stop-color="#abeee9" offset="1"/></linearGradient><linearGradient id="l" x2="1" gradientTransform="matrix(3.3466e-12 45.359 -45.359 3.3466e-12 761.38 1231.8)" gradientUnits="userSpaceOnUse"><stop stop-color="#fff" stop-opacity=".25" offset="0"/><stop stop-color="#fff" stop-opacity=".5" offset="1"/></linearGradient></defs></svg>
