<svg viewBox="0 0 100 100" xmlns="http://www.w3.org/2000/svg" fill-rule="evenodd" clip-rule="evenodd" stroke-linejoin="round" stroke-miterlimit="2">
    <path fill="none" d="M0 0h100v100H0z" />
    <path d="M29.086 18.583c2.886 0 5.55.222 7.993.888 2.442.444 4.44 1.332 6.217 2.442 1.776 1.111 3.108 2.665 3.996 4.663.888 1.998 1.332 4.441 1.332 7.105 0 3.108-.666 5.773-2.22 7.771-1.332 1.998-3.552 3.774-6.217 5.107 3.775 1.11 6.661 3.108 8.437 5.772 1.777 2.665 2.887 5.995 2.887 9.77 0 3.108-.666 5.772-1.777 7.993-1.11 2.22-2.886 4.218-4.884 5.55-1.998 1.332-4.441 2.443-7.105 3.109-2.664.666-5.329 1.11-7.993 1.11H0v-61.28h29.086zM27.31 43.45c2.442 0 4.44-.666 5.994-1.776 1.554-1.11 2.221-3.108 2.221-5.551 0-1.332-.222-2.664-.667-3.552-.444-.888-1.11-1.554-1.998-2.221-.888-.444-1.776-.888-2.886-1.11-1.11-.222-2.22-.222-3.553-.222H13.544V43.45H27.31zm.666 26.2c1.332 0 2.664-.222 3.774-.445 1.11-.222 2.22-.666 3.108-1.332.889-.666 1.555-1.332 2.221-2.442.444-1.11.888-2.442.888-3.997 0-3.108-.888-5.328-2.664-6.882-1.777-1.333-4.219-1.999-7.105-1.999H13.544V69.65h14.432zm42.851-.222c1.776 1.776 4.441 2.664 7.993 2.664 2.442 0 4.663-.666 6.439-1.776 1.776-1.333 2.886-2.665 3.33-3.997h10.88c-1.776 5.329-4.441 9.103-7.993 11.546-3.553 2.22-7.771 3.552-12.878 3.552-3.552 0-6.661-.666-9.547-1.776-2.886-1.11-5.107-2.665-7.105-4.885-1.998-1.998-3.552-4.44-4.441-7.327-1.11-2.886-1.554-5.995-1.554-9.547 0-3.33.444-6.439 1.554-9.325 1.111-2.887 2.665-5.329 4.663-7.549 1.998-1.998 4.441-3.775 7.105-4.885 2.886-1.11 5.773-1.776 9.325-1.776 3.775 0 7.105.666 9.991 2.22 2.887 1.554 5.107 3.331 6.883 5.995 1.777 2.442 3.109 5.329 3.997 8.437.444 3.109.666 6.217.444 9.769H67.719c0 3.553 1.332 6.883 3.108 8.66zm13.988-23.314c-1.554-1.554-3.997-2.442-6.883-2.442-1.998 0-3.552.444-4.885 1.11-1.332.666-2.22 1.555-3.108 2.443-.888.888-1.332 1.998-1.554 3.108-.222 1.11-.444 1.998-.444 2.886h19.982c-.444-3.33-1.554-5.55-3.108-7.105zM65.276 22.801h24.868v5.995H65.276v-5.995z" fill="#fff" fill-rule="nonzero" />
</svg>