<svg viewBox="0 0 100 100" xmlns="http://www.w3.org/2000/svg" fill-rule="evenodd" clip-rule="evenodd" stroke-linejoin="round" stroke-miterlimit="2"><path fill="none" d="M0 0h100v100H0z"/><path d="M100 50c0-27.614-22.386-50-50-50S0 22.386 0 50c0 24.956 18.284 45.642 42.188 49.393v-34.94H29.492V50h12.696V38.984c0-12.531 7.464-19.453 18.885-19.453 5.471 0 11.193.977 11.193.977v12.305h-6.305c-6.211 0-8.149 3.854-8.149 7.808V50H71.68l-2.217 14.453H57.812v34.94C81.716 95.642 100 74.956 100 50z" fill="#fff" fill-rule="nonzero"/></svg>