<svg viewBox="0 0 100 100" xmlns="http://www.w3.org/2000/svg" fill-rule="evenodd" clip-rule="evenodd" stroke-linejoin="round" stroke-miterlimit="2"><path fill="none" d="M0 0h100v100H0z"/><clipPath id="prefix__a"><path d="M0 0h100v100H0z"/></clipPath><g clip-path="url(#prefix__a)"><path d="M50 0C36.421 0 34.718.058 29.385.301c-5.322.243-8.957 1.088-12.137 2.324-3.288 1.278-6.076 2.987-8.856 5.767-2.78 2.78-4.489 5.568-5.767 8.856C1.389 20.428.544 24.063.301 29.385.057 34.718 0 36.421 0 50c0 13.579.057 15.282.301 20.615.243 5.322 1.088 8.957 2.324 12.137 1.278 3.288 2.987 6.076 5.767 8.856 2.78 2.78 5.568 4.489 8.856 5.767 3.18 1.236 6.815 2.081 12.137 2.324 5.333.243 7.036.301 20.615.301 13.579 0 15.282-.058 20.615-.301 5.322-.243 8.957-1.088 12.137-2.324 3.288-1.278 6.076-2.987 8.856-5.767 2.78-2.78 4.489-5.568 5.767-8.856 1.236-3.18 2.081-6.815 2.324-12.137.243-5.333.301-7.036.301-20.615 0-13.579-.058-15.282-.301-20.615-.243-5.322-1.088-8.957-2.324-12.137-1.278-3.288-2.987-6.076-5.767-8.856-2.78-2.78-5.568-4.489-8.856-5.767C79.572 1.389 75.937.544 70.615.301 65.282.058 63.579 0 50 0zm0 9.009c13.351 0 14.932.051 20.204.292 4.875.222 7.523 1.037 9.285 1.721 2.333.907 3.999 1.991 5.749 3.74 1.749 1.75 2.833 3.416 3.74 5.749.685 1.762 1.499 4.41 1.721 9.285.241 5.272.292 6.853.292 20.204s-.051 14.932-.292 20.204c-.222 4.875-1.036 7.523-1.721 9.285-.907 2.333-1.991 3.999-3.74 5.749-1.75 1.749-3.416 2.833-5.749 3.74-1.762.685-4.41 1.499-9.285 1.721-5.271.241-6.852.292-20.204.292s-14.933-.051-20.204-.292c-4.875-.222-7.523-1.036-9.285-1.721-2.333-.907-3.999-1.991-5.749-3.74-1.749-1.75-2.833-3.416-3.74-5.749-.685-1.762-1.499-4.41-1.722-9.285-.24-5.272-.291-6.853-.291-20.204s.051-14.932.291-20.204c.223-4.875 1.037-7.523 1.722-9.285.907-2.333 1.991-3.999 3.74-5.749 1.75-1.749 3.416-2.833 5.749-3.74 1.762-.684 4.41-1.499 9.285-1.721 5.272-.241 6.853-.292 20.204-.292zm0 15.315C35.82 24.324 24.324 35.82 24.324 50c0 14.18 11.496 25.676 25.676 25.676 14.18 0 25.676-11.496 25.676-25.676 0-14.18-11.496-25.676-25.676-25.676zm0 42.343c-9.205 0-16.667-7.462-16.667-16.667 0-9.205 7.462-16.667 16.667-16.667 9.205 0 16.667 7.462 16.667 16.667 0 9.205-7.462 16.667-16.667 16.667zM82.69 23.31a6 6 0 11-12 0 6 6 0 0112 0z" fill="#fff" fill-rule="nonzero"/></g></svg>