<svg viewBox="0 0 100 100" xmlns="http://www.w3.org/2000/svg" fill-rule="evenodd" clip-rule="evenodd" stroke-linejoin="round" stroke-miterlimit="2"><path fill="none" d="M0 0h100v100H0z"/><path d="M50.041 0C22.451 0 .082 22.368.082 49.959c0 21.176 13.158 39.268 31.744 46.546-.453-3.947-.823-10.033.164-14.35.905-3.907 5.839-24.836 5.839-24.836s-1.48-3.002-1.48-7.401c0-6.949 4.029-12.13 9.046-12.13 4.276 0 6.332 3.207 6.332 7.031 0 4.276-2.714 10.691-4.153 16.653-1.193 4.975 2.508 9.046 7.401 9.046 8.882 0 15.707-9.375 15.707-22.862 0-11.965-8.593-20.312-20.888-20.312-14.227 0-22.574 10.649-22.574 21.669 0 4.276 1.645 8.882 3.701 11.39.411.493.452.946.329 1.439-.37 1.563-1.234 4.975-1.398 5.674-.206.905-.74 1.111-1.686.658-6.25-2.919-10.156-12.006-10.156-19.366 0-15.749 11.431-30.222 33.018-30.222 17.311 0 30.798 12.335 30.798 28.865 0 17.228-10.856 31.085-25.905 31.085-5.058 0-9.827-2.631-11.431-5.756l-3.125 11.883c-1.11 4.358-4.153 9.786-6.209 13.117A50.188 50.188 0 0049.959 100c27.59 0 49.959-22.368 49.959-49.959C100 22.368 77.631 0 50.041 0z" fill="#fff" fill-rule="nonzero"/></svg>