<?xml version="1.0" encoding="UTF-8" standalone="no"?><!DOCTYPE svg PUBLIC "-//W3C//DTD SVG 1.1//EN" "http://www.w3.org/Graphics/SVG/1.1/DTD/svg11.dtd"><svg width="100%" height="100%" viewBox="0 0 100 100" version="1.1" xmlns="http://www.w3.org/2000/svg" xmlns:xlink="http://www.w3.org/1999/xlink" xml:space="preserve" xmlns:serif="http://www.serif.com/" style="fill-rule:evenodd;clip-rule:evenodd;stroke-linejoin:round;stroke-miterlimit:2;"><rect id="Artboard1" x="0" y="0" width="100" height="100" style="fill:none;"/><path id="sc-logo-horizontal-white" d="M99.994,59.031c-0.214,7.495 -6.713,13.223 -14.165,13.223l-34.08,0c-1.563,-0.011 -2.822,-1.285 -2.816,-2.848l0,-36.671c-0.065,-1.301 0.687,-2.505 1.885,-3.019c-0,0 3.126,-2.141 9.721,-2.141c4.051,-0.015 8.03,1.073 11.51,3.148c5.481,3.207 9.366,8.567 10.707,14.775c1.176,-0.341 2.395,-0.51 3.619,-0.503c3.684,0.001 7.212,1.494 9.777,4.138c2.566,2.645 3.952,6.215 3.842,9.898Zm-55.322,-23.961c1.028,12.43 1.777,23.769 -0,36.178c-0,0.609 -0.494,1.103 -1.103,1.103c-0.609,-0 -1.103,-0.494 -1.103,-1.103c-1.649,-12.292 -0.921,-23.855 0,-36.178c0,-0.609 0.494,-1.103 1.103,-1.103c0.609,-0 1.103,0.494 1.103,1.103Zm-6.874,4.282c1.189,11.093 1.542,20.804 -0.021,31.939c-0.079,0.572 -0.568,0.999 -1.146,0.999c-0.578,0 -1.067,-0.427 -1.146,-0.999c-1.381,-10.975 -1.07,-20.943 0,-31.939c0,-0.638 0.518,-1.156 1.157,-1.156c0.638,-0 1.156,0.518 1.156,1.156Zm-6.927,-1.07c1.124,11.37 1.627,21.574 -0,32.977c-0,0.612 -0.496,1.108 -1.108,1.108c-0.612,-0 -1.109,-0.496 -1.109,-1.108c-1.584,-11.221 -1.07,-21.735 0,-32.977c0,-0.612 0.497,-1.109 1.109,-1.109c0.612,0 1.108,0.497 1.108,1.109Zm-6.863,3.212c1.354,9.894 1.343,19.927 -0.032,29.818c-0.057,0.582 -0.546,1.025 -1.13,1.025c-0.584,-0 -1.073,-0.443 -1.13,-1.025c-1.274,-9.899 -1.274,-19.92 0,-29.818c0,-0.633 0.513,-1.146 1.146,-1.146c0.633,0 1.146,0.513 1.146,1.146Zm-6.96,7.377c1.756,7.783 0.953,14.604 -0.118,22.484c0,0.591 -0.479,1.071 -1.07,1.071c-0.592,-0 -1.071,-0.48 -1.071,-1.071c-0.878,-7.752 -1.659,-14.808 0,-22.484c0.057,-0.582 0.546,-1.025 1.13,-1.025c0.584,-0 1.073,0.443 1.129,1.025Zm-6.895,-1.135c1.617,7.912 1.081,14.636 -0.043,22.58c-0.107,1.167 -2.141,1.178 -2.248,0c-1.017,-7.837 -1.446,-14.775 -0.043,-22.58c0.079,-0.584 0.578,-1.02 1.167,-1.02c0.589,0 1.088,0.436 1.167,1.02Zm-6.949,3.801c1.671,5.289 1.071,9.561 -0.107,14.904c0,0.591 -0.479,1.07 -1.07,1.07c-0.592,0 -1.071,-0.479 -1.071,-1.07c-1.007,-5.268 -1.478,-9.647 -0.096,-14.904c0.057,-0.605 0.565,-1.066 1.172,-1.066c0.607,0 1.115,0.461 1.172,1.066Z" style="fill:#fff;fill-rule:nonzero;"/></svg>