<svg viewBox="0 0 100 100" xmlns="http://www.w3.org/2000/svg" fill-rule="evenodd" clip-rule="evenodd" stroke-linejoin="round" stroke-miterlimit="2"><path fill="none" d="M0 0h100v100H0z"/><clipPath id="prefix__a"><path d="M0 0h100v100H0z"/></clipPath><g clip-path="url(#prefix__a)"><path d="M89.762 29.6c.061.882.061 1.764.061 2.653 0 27.11-20.638 58.375-58.375 58.375v-.016A58.083 58.083 0 010 81.414a41.72 41.72 0 004.883.297 41.2 41.2 0 0025.481-8.8 20.541 20.541 0 01-19.168-14.247c3.076.593 6.245.471 9.263-.353-9.571-1.934-16.457-10.344-16.457-20.11v-.26a20.385 20.385 0 009.311 2.567c-9.015-6.024-11.794-18.017-6.35-27.394a58.23 58.23 0 0042.283 21.435 20.53 20.53 0 015.936-19.602c8.263-7.768 21.259-7.37 29.027.889a41.18 41.18 0 0013.028-4.98 20.586 20.586 0 01-9.018 11.346A40.814 40.814 0 00100 18.973 41.665 41.665 0 0189.762 29.6z" fill="#fff" fill-rule="nonzero"/></g></svg>