<svg xmlns="http://www.w3.org/2000/svg">
    <symbol id="twitter" viewBox="0 0 100 100">
        <path d="M89.762 29.6c.061.882.061 1.764.061 2.653 0 27.11-20.638 58.375-58.375 58.375v-.016A58.083 58.083 0 010 81.414a41.72 41.72 0 004.883.297 41.2 41.2 0 0025.481-8.8 20.541 20.541 0 01-19.168-14.247c3.076.593 6.245.471 9.263-.353-9.571-1.934-16.457-10.344-16.457-20.11v-.26a20.385 20.385 0 009.311 2.567c-9.015-6.024-11.794-18.017-6.35-27.394a58.23 58.23 0 0042.283 21.435 20.53 20.53 0 015.936-19.602c8.263-7.768 21.259-7.37 29.027.889a41.18 41.18 0 0013.028-4.98 20.586 20.586 0 01-9.018 11.346A40.814 40.814 0 00100 18.973 41.665 41.665 0 0189.762 29.6z"/>
    </symbol>
    <symbol id="github" viewBox="0 0 100 100">
        <path d="M49.995 0C22.389 0 0 22.386 0 50.002c0 22.09 14.325 40.83 34.194 47.441 2.501.461 3.413-1.083 3.413-2.409 0-1.188-.043-4.331-.067-8.503-13.908 3.021-16.843-6.703-16.843-6.703-2.274-5.777-5.552-7.315-5.552-7.315-4.54-3.1.343-3.039.343-3.039 5.019.353 7.659 5.154 7.659 5.154 4.46 7.64 11.704 5.433 14.552 4.153.454-3.229 1.747-5.433 3.174-6.682-11.102-1.262-22.775-5.553-22.775-24.713 0-5.457 1.949-9.923 5.147-13.416-.516-1.265-2.231-6.351.491-13.233 0 0 4.196-1.344 13.748 5.126 3.987-1.111 8.266-1.663 12.518-1.685 4.248.022 8.523.574 12.517 1.685 9.546-6.47 13.736-5.126 13.736-5.126 2.728 6.882 1.013 11.968.5 13.233 3.204 3.493 5.138 7.959 5.138 13.416 0 19.209-11.691 23.436-22.827 24.673 1.792 1.544 3.391 4.595 3.391 9.257 0 6.685-.061 12.079-.061 13.718 0 1.338.902 2.894 3.438 2.406C85.687 90.813 100 72.086 100 50.002 100 22.386 77.611 0 49.995 0z" />
    </symbol>
</svg>