<?xml version="1.0" encoding="UTF-8" standalone="no"?><!DOCTYPE svg PUBLIC "-//W3C//DTD SVG 1.1//EN" "http://www.w3.org/Graphics/SVG/1.1/DTD/svg11.dtd"><svg width="100%" height="100%" viewBox="0 0 1920 1080" version="1.1" xmlns="http://www.w3.org/2000/svg" xmlns:xlink="http://www.w3.org/1999/xlink" xml:space="preserve" xmlns:serif="http://www.serif.com/" style="fill-rule:evenodd;clip-rule:evenodd;stroke-linejoin:round;stroke-miterlimit:2;"><rect id="Artboard1" x="0" y="0" width="1920" height="1080" style="fill:none;"/><g id="Artboard11" serif:id="Artboard1"><rect x="0" y="0" width="1920" height="1080" style="fill:#0f4c81;"/><path d="M830,348.038l30,51.962l-30,51.962l-30,-0l30,-51.962l-30,-51.962l30,0Z" style="fill:#fff;"/><path d="M830,488.038l30,51.962l-30,51.962l-30,-0l30,-51.962l-30,-51.962l30,0Z" style="fill:#fff;"/><path d="M830,628.038l30,51.962l-30,51.962l-30,-0l30,-51.962l-30,-51.962l30,0Z" style="fill:#fff;"/><text x="946.4px" y="452.56px" style="font-family:'JetBrainsMono-ExtraBold', 'JetBrains Mono', monospace;font-weight:800;font-size:144px;fill:#fff;">2020</text><g transform="matrix(1,0,0,1,-233,252)"><text x="1179.4px" y="340.56px" style="font-family:'JetBrainsMono-ExtraBold', 'JetBrains Mono', monospace;font-weight:800;font-size:144px;fill:#fff;">EOF</text><text x="1438.6px" y="340.56px" style="font-family:'JetBrainsMono-ExtraBold', 'JetBrains Mono', monospace;font-weight:800;font-size:144px;fill:#f26b5b;">^C</text></g><rect x="950" y="711.962" width="80" height="20" style="fill:#fff;"/></g></svg>