<?xml version="1.0" encoding="UTF-8" standalone="no"?><!DOCTYPE svg PUBLIC "-//W3C//DTD SVG 1.1//EN" "http://www.w3.org/Graphics/SVG/1.1/DTD/svg11.dtd"><svg width="100%" height="100%" viewBox="0 0 1920 1080" version="1.1" xmlns="http://www.w3.org/2000/svg" xmlns:xlink="http://www.w3.org/1999/xlink" xml:space="preserve" xmlns:serif="http://www.serif.com/" style="fill-rule:evenodd;clip-rule:evenodd;stroke-linejoin:round;stroke-miterlimit:2;"><rect id="Artboard2" x="0" y="0" width="1920" height="1080" style="fill:none;"/><g id="Artboard21" serif:id="Artboard2"><rect x="0" y="0" width="1920" height="1080" style="fill:#939597;"/><path d="M830,282.058l30,51.961l-30,51.962l-30,-0l30,-51.962l-30,-51.961l30,-0Z" style="fill:#fff;"/><path d="M830,422.058l30,51.961l-30,51.962l-30,-0l30,-51.962l-30,-51.961l30,-0Z" style="fill:#fff;"/><path d="M830,562.058l30,51.961l-30,51.962l-30,-0l30,-51.962l-30,-51.961l30,-0Z" style="fill:#fff;"/><path d="M830,702.058l30,51.961l-30,51.962l-30,-0l30,-51.962l-30,-51.961l30,-0Z" style="fill:#fff;"/><text x="946.4px" y="386.579px" style="font-family:'JetBrainsMono-ExtraBold', 'JetBrains Mono', monospace;font-weight:800;font-size:144px;fill:#fff;">2020</text><g transform="matrix(1,0,0,1,-233,186.019)"><text x="1179.4px" y="340.56px" style="font-family:'JetBrainsMono-ExtraBold', 'JetBrains Mono', monospace;font-weight:800;font-size:144px;fill:#fff;">EOF</text><text x="1438.6px" y="340.56px" style="font-family:'JetBrainsMono-ExtraBold', 'JetBrains Mono', monospace;font-weight:800;font-size:144px;fill:#f5df4d;">^C</text></g><text x="946.4px" y="666.579px" style="font-family:'JetBrainsMono-ExtraBold', 'JetBrains Mono', monospace;font-weight:800;font-size:144px;fill:#fff;">2021</text><rect x="950" y="785.981" width="80" height="20" style="fill:#fff;"/></g></svg>