<?xml version="1.0" encoding="UTF-8" standalone="no"?><!DOCTYPE svg PUBLIC "-//W3C//DTD SVG 1.1//EN" "http://www.w3.org/Graphics/SVG/1.1/DTD/svg11.dtd"><svg width="100%" height="100%" viewBox="0 0 1920 1080" version="1.1" xmlns="http://www.w3.org/2000/svg" xmlns:xlink="http://www.w3.org/1999/xlink" xml:space="preserve" xmlns:serif="http://www.serif.com/" style="fill-rule:evenodd;clip-rule:evenodd;stroke-linejoin:round;stroke-miterlimit:2;"><rect id="Artboard2" x="0" y="0" width="1920" height="1080" style="fill:none;"/><g id="Artboard21" serif:id="Artboard2"><rect x="0" y="0" width="1920" height="1080" style="fill:#939597;"/><path d="M830,282.058l30,51.961l-30,51.962l-30,-0l30,-51.962l-30,-51.961l30,-0Z" style="fill:#fff;"/><path d="M830,422.058l30,51.961l-30,51.962l-30,-0l30,-51.962l-30,-51.961l30,-0Z" style="fill:#fff;"/><path d="M830,562.058l30,51.961l-30,51.962l-30,-0l30,-51.962l-30,-51.961l30,-0Z" style="fill:#fff;"/><path d="M830,702.058l30,51.961l-30,51.962l-30,-0l30,-51.962l-30,-51.961l30,-0Z" style="fill:#fff;"/><path d="M956.48,386.579l0,-20.304l33.408,-32.256c4.128,-3.936 7.128,-7.56 9,-10.872c1.872,-3.312 2.808,-6.792 2.808,-10.44c0,-4.128 -1.128,-7.368 -3.384,-9.72c-2.256,-2.352 -5.352,-3.528 -9.288,-3.528c-4.32,0 -7.704,1.272 -10.152,3.816c-2.448,2.544 -3.672,6.072 -3.672,10.584l-21.6,0c0,-6.816 1.464,-12.768 4.392,-17.856c2.928,-5.088 7.104,-9.024 12.528,-11.808c5.424,-2.784 11.736,-4.176 18.936,-4.176c6.72,0 12.624,1.248 17.712,3.744c5.088,2.496 9.048,6.048 11.88,10.656c2.832,4.608 4.248,9.936 4.248,15.984c0,6.816 -1.68,13.344 -5.04,19.584c-3.36,6.24 -8.736,12.768 -16.128,19.584l-19.008,17.568l41.328,0l0,19.44l-67.968,0Z" style="fill:#fff;fill-rule:nonzero;"/><path d="M1076,388.019c-7.008,0 -13.104,-1.32 -18.288,-3.96c-5.184,-2.64 -9.192,-6.336 -12.024,-11.088c-2.832,-4.752 -4.248,-10.296 -4.248,-16.632l0,-44.64c0,-6.336 1.416,-11.88 4.248,-16.632c2.832,-4.752 6.84,-8.448 12.024,-11.088c5.184,-2.64 11.28,-3.96 18.288,-3.96c7.008,0 13.104,1.32 18.288,3.96c5.184,2.64 9.192,6.336 12.024,11.088c2.832,4.752 4.248,10.296 4.248,16.632l0,44.64c0,6.336 -1.416,11.88 -4.248,16.632c-2.832,4.752 -6.84,8.448 -12.024,11.088c-5.184,2.64 -11.28,3.96 -18.288,3.96Zm0,-18.72c4.512,0 8.04,-1.152 10.584,-3.456c2.544,-2.304 3.816,-5.472 3.816,-9.504l0,-44.64c0,-4.032 -1.272,-7.2 -3.816,-9.504c-2.544,-2.304 -6.072,-3.456 -10.584,-3.456c-4.512,0 -8.04,1.152 -10.584,3.456c-2.544,2.304 -3.816,5.472 -3.816,9.504l0,44.64c0,4.032 1.272,7.2 3.816,9.504c2.544,2.304 6.072,3.456 10.584,3.456Zm0,-26.64c-2.112,0 -3.84,-0.72 -5.184,-2.16c-1.344,-1.44 -2.016,-3.36 -2.016,-5.76l0,-2.16c0,-2.4 0.672,-4.32 2.016,-5.76c1.344,-1.44 3.072,-2.16 5.184,-2.16c2.208,0 3.96,0.72 5.256,2.16c1.296,1.44 1.944,3.36 1.944,5.76l0,2.16c0,2.4 -0.648,4.32 -1.944,5.76c-1.296,1.44 -3.048,2.16 -5.256,2.16Z" style="fill:#fff;fill-rule:nonzero;"/><path d="M1129.28,386.579l0,-20.304l33.408,-32.256c4.128,-3.936 7.128,-7.56 9,-10.872c1.872,-3.312 2.808,-6.792 2.808,-10.44c0,-4.128 -1.128,-7.368 -3.384,-9.72c-2.256,-2.352 -5.352,-3.528 -9.288,-3.528c-4.32,0 -7.704,1.272 -10.152,3.816c-2.448,2.544 -3.672,6.072 -3.672,10.584l-21.6,0c0,-6.816 1.464,-12.768 4.392,-17.856c2.928,-5.088 7.104,-9.024 12.528,-11.808c5.424,-2.784 11.736,-4.176 18.936,-4.176c6.72,0 12.624,1.248 17.712,3.744c5.088,2.496 9.048,6.048 11.88,10.656c2.832,4.608 4.248,9.936 4.248,15.984c0,6.816 -1.68,13.344 -5.04,19.584c-3.36,6.24 -8.736,12.768 -16.128,19.584l-19.008,17.568l41.328,0l0,19.44l-67.968,0Z" style="fill:#fff;fill-rule:nonzero;"/><path d="M1248.8,388.019c-7.008,0 -13.104,-1.32 -18.288,-3.96c-5.184,-2.64 -9.192,-6.336 -12.024,-11.088c-2.832,-4.752 -4.248,-10.296 -4.248,-16.632l0,-44.64c0,-6.336 1.416,-11.88 4.248,-16.632c2.832,-4.752 6.84,-8.448 12.024,-11.088c5.184,-2.64 11.28,-3.96 18.288,-3.96c7.008,0 13.104,1.32 18.288,3.96c5.184,2.64 9.192,6.336 12.024,11.088c2.832,4.752 4.248,10.296 4.248,16.632l0,44.64c0,6.336 -1.416,11.88 -4.248,16.632c-2.832,4.752 -6.84,8.448 -12.024,11.088c-5.184,2.64 -11.28,3.96 -18.288,3.96Zm0,-18.72c4.512,0 8.04,-1.152 10.584,-3.456c2.544,-2.304 3.816,-5.472 3.816,-9.504l0,-44.64c0,-4.032 -1.272,-7.2 -3.816,-9.504c-2.544,-2.304 -6.072,-3.456 -10.584,-3.456c-4.512,0 -8.04,1.152 -10.584,3.456c-2.544,2.304 -3.816,5.472 -3.816,9.504l0,44.64c0,4.032 1.272,7.2 3.816,9.504c2.544,2.304 6.072,3.456 10.584,3.456Zm0,-26.64c-2.112,0 -3.84,-0.72 -5.184,-2.16c-1.344,-1.44 -2.016,-3.36 -2.016,-5.76l0,-2.16c0,-2.4 0.672,-4.32 2.016,-5.76c1.344,-1.44 3.072,-2.16 5.184,-2.16c2.208,0 3.96,0.72 5.256,2.16c1.296,1.44 1.944,3.36 1.944,5.76l0,2.16c0,2.4 -0.648,4.32 -1.944,5.76c-1.296,1.44 -3.048,2.16 -5.256,2.16Z" style="fill:#fff;fill-rule:nonzero;"/><g transform="matrix(1,0,0,1,-233,186.019)"><g transform="matrix(144,0,0,144,1179.4,340.56)"><path d="M0.53,-0l-0.45,-0l-0,-0.73l0.45,0l0,0.128l-0.303,0l-0,0.164l0.268,-0l-0,0.128l-0.268,-0l-0,0.182l0.303,-0l0,0.128Z" style="fill:#fff;fill-rule:nonzero;"/></g><g transform="matrix(144,0,0,144,1265.8,340.56)"><path d="M0.3,0.01c-0.049,-0 -0.091,-0.009 -0.127,-0.028c-0.036,-0.018 -0.064,-0.043 -0.083,-0.077c-0.02,-0.033 -0.03,-0.071 -0.03,-0.115l0,-0.31c0,-0.044 0.01,-0.083 0.03,-0.115c0.019,-0.033 0.047,-0.059 0.083,-0.078c0.036,-0.018 0.078,-0.027 0.127,-0.027c0.049,0 0.091,0.009 0.127,0.027c0.036,0.019 0.064,0.044 0.083,0.078c0.02,0.032 0.03,0.071 0.03,0.115l0,0.31c0,0.044 -0.01,0.083 -0.03,0.116c-0.019,0.033 -0.047,0.058 -0.083,0.077c-0.036,0.018 -0.078,0.027 -0.127,0.027Zm0,-0.13c0.03,0 0.052,-0.008 0.068,-0.023c0.015,-0.015 0.022,-0.038 0.022,-0.067l0,-0.31c0,-0.06 -0.03,-0.09 -0.09,-0.09c-0.06,0 -0.09,0.03 -0.09,0.09l-0,0.31c-0,0.029 0.007,0.052 0.022,0.067c0.015,0.015 0.038,0.023 0.068,0.023Z" style="fill:#fff;fill-rule:nonzero;"/></g><g transform="matrix(144,0,0,144,1352.2,340.56)"><path d="M0.22,-0l-0.15,-0l0,-0.73l0.47,0l0,0.14l-0.322,0l-0,0.162l0.296,-0l0,0.14l-0.294,-0l-0,0.288Z" style="fill:#fff;fill-rule:nonzero;"/></g><g transform="matrix(144,0,0,144,1438.6,340.56)"><path d="M0.06,-0.34l0.168,-0.39l0.146,0l0.166,0.39l-0.142,-0l-0.077,-0.21c-0.009,-0.026 -0.016,-0.05 -0.02,-0.072c-0.004,0.022 -0.011,0.046 -0.02,0.072l-0.08,0.21l-0.141,-0Z" style="fill:#f5df4d;fill-rule:nonzero;"/></g><g transform="matrix(144,0,0,144,1525,340.56)"><path d="M0.304,0.01c-0.049,-0 -0.091,-0.009 -0.128,-0.028c-0.037,-0.018 -0.065,-0.044 -0.085,-0.077c-0.021,-0.033 -0.031,-0.072 -0.031,-0.115l0,-0.31c0,-0.044 0.01,-0.083 0.031,-0.116c0.02,-0.033 0.048,-0.059 0.085,-0.077c0.037,-0.018 0.079,-0.027 0.128,-0.027c0.049,0 0.091,0.009 0.128,0.027c0.037,0.018 0.065,0.044 0.085,0.077c0.021,0.033 0.031,0.072 0.031,0.116l-0.15,0c0,-0.029 -0.008,-0.051 -0.025,-0.067c-0.016,-0.015 -0.039,-0.023 -0.069,-0.023c-0.03,0 -0.053,0.008 -0.07,0.023c-0.016,0.016 -0.024,0.038 -0.024,0.067l0,0.31c0,0.029 0.008,0.051 0.024,0.067c0.017,0.015 0.04,0.023 0.07,0.023c0.03,0 0.053,-0.008 0.07,-0.023c0.016,-0.016 0.024,-0.038 0.024,-0.067l0.15,0c0,0.044 -0.01,0.083 -0.031,0.116c-0.02,0.033 -0.048,0.059 -0.085,0.077c-0.037,0.018 -0.079,0.027 -0.128,0.027Z" style="fill:#f5df4d;fill-rule:nonzero;"/></g></g><path d="M956.48,666.579l0,-20.304l33.408,-32.256c4.128,-3.936 7.128,-7.56 9,-10.872c1.872,-3.312 2.808,-6.792 2.808,-10.44c0,-4.128 -1.128,-7.368 -3.384,-9.72c-2.256,-2.352 -5.352,-3.528 -9.288,-3.528c-4.32,0 -7.704,1.272 -10.152,3.816c-2.448,2.544 -3.672,6.072 -3.672,10.584l-21.6,0c0,-6.816 1.464,-12.768 4.392,-17.856c2.928,-5.088 7.104,-9.024 12.528,-11.808c5.424,-2.784 11.736,-4.176 18.936,-4.176c6.72,0 12.624,1.248 17.712,3.744c5.088,2.496 9.048,6.048 11.88,10.656c2.832,4.608 4.248,9.936 4.248,15.984c0,6.816 -1.68,13.344 -5.04,19.584c-3.36,6.24 -8.736,12.768 -16.128,19.584l-19.008,17.568l41.328,0l0,19.44l-67.968,0Z" style="fill:#fff;fill-rule:nonzero;"/><path d="M1076,668.019c-7.008,0 -13.104,-1.32 -18.288,-3.96c-5.184,-2.64 -9.192,-6.336 -12.024,-11.088c-2.832,-4.752 -4.248,-10.296 -4.248,-16.632l0,-44.64c0,-6.336 1.416,-11.88 4.248,-16.632c2.832,-4.752 6.84,-8.448 12.024,-11.088c5.184,-2.64 11.28,-3.96 18.288,-3.96c7.008,0 13.104,1.32 18.288,3.96c5.184,2.64 9.192,6.336 12.024,11.088c2.832,4.752 4.248,10.296 4.248,16.632l0,44.64c0,6.336 -1.416,11.88 -4.248,16.632c-2.832,4.752 -6.84,8.448 -12.024,11.088c-5.184,2.64 -11.28,3.96 -18.288,3.96Zm0,-18.72c4.512,0 8.04,-1.152 10.584,-3.456c2.544,-2.304 3.816,-5.472 3.816,-9.504l0,-44.64c0,-4.032 -1.272,-7.2 -3.816,-9.504c-2.544,-2.304 -6.072,-3.456 -10.584,-3.456c-4.512,0 -8.04,1.152 -10.584,3.456c-2.544,2.304 -3.816,5.472 -3.816,9.504l0,44.64c0,4.032 1.272,7.2 3.816,9.504c2.544,2.304 6.072,3.456 10.584,3.456Zm0,-26.64c-2.112,0 -3.84,-0.72 -5.184,-2.16c-1.344,-1.44 -2.016,-3.36 -2.016,-5.76l0,-2.16c0,-2.4 0.672,-4.32 2.016,-5.76c1.344,-1.44 3.072,-2.16 5.184,-2.16c2.208,0 3.96,0.72 5.256,2.16c1.296,1.44 1.944,3.36 1.944,5.76l0,2.16c0,2.4 -0.648,4.32 -1.944,5.76c-1.296,1.44 -3.048,2.16 -5.256,2.16Z" style="fill:#fff;fill-rule:nonzero;"/><path d="M1129.28,666.579l0,-20.304l33.408,-32.256c4.128,-3.936 7.128,-7.56 9,-10.872c1.872,-3.312 2.808,-6.792 2.808,-10.44c0,-4.128 -1.128,-7.368 -3.384,-9.72c-2.256,-2.352 -5.352,-3.528 -9.288,-3.528c-4.32,0 -7.704,1.272 -10.152,3.816c-2.448,2.544 -3.672,6.072 -3.672,10.584l-21.6,0c0,-6.816 1.464,-12.768 4.392,-17.856c2.928,-5.088 7.104,-9.024 12.528,-11.808c5.424,-2.784 11.736,-4.176 18.936,-4.176c6.72,0 12.624,1.248 17.712,3.744c5.088,2.496 9.048,6.048 11.88,10.656c2.832,4.608 4.248,9.936 4.248,15.984c0,6.816 -1.68,13.344 -5.04,19.584c-3.36,6.24 -8.736,12.768 -16.128,19.584l-19.008,17.568l41.328,0l0,19.44l-67.968,0Z" style="fill:#fff;fill-rule:nonzero;"/><path d="M1286.24,666.579l-69.12,0l0,-18.72l26.496,0l0,-66.672l-26.784,19.872l0,-22.32l24.624,-17.28l23.76,0l0,86.4l21.024,0l0,18.72Z" style="fill:#fff;fill-rule:nonzero;"/><rect x="950" y="785.981" width="80" height="20" style="fill:#fff;"/></g></svg>