<?xml version="1.0" encoding="UTF-8" standalone="no"?><!DOCTYPE svg PUBLIC "-//W3C//DTD SVG 1.1//EN" "http://www.w3.org/Graphics/SVG/1.1/DTD/svg11.dtd"><svg width="100%" height="100%" viewBox="0 0 1280 640" version="1.1" xmlns="http://www.w3.org/2000/svg" xmlns:xlink="http://www.w3.org/1999/xlink" xml:space="preserve" xmlns:serif="http://www.serif.com/" style="fill-rule:evenodd;clip-rule:evenodd;stroke-linejoin:round;stroke-miterlimit:2;"><rect id="Artboard2" x="0" y="0" width="1280" height="640" style="fill:none;"/><clipPath id="_clip1"><rect x="0" y="0" width="1280" height="640"/></clipPath><g clip-path="url(#_clip1)"><rect x="0" y="0" width="1280" height="640" style="fill:#26bfb3;"/><g><path d="M263.604,261.981l-0,116.038l-11.77,-0l0,-92.83l-45.586,78.076l-5.802,0l-45.586,-77.579l-0,92.333l-11.77,-0l0,-116.038l10.112,0l50.394,86.034l49.896,-86.034l10.112,0Z" style="fill:#fff;fill-rule:nonzero;"/><rect x="301.399" y="261.981" width="12.267" height="116.038" style="fill:#fff;fill-rule:nonzero;"/><path d="M401.854,379.013c-11.493,0 -21.853,-2.541 -31.081,-7.625c-9.228,-5.083 -16.466,-12.129 -21.716,-21.135c-5.249,-9.007 -7.874,-19.091 -7.874,-30.253c0,-11.162 2.625,-21.246 7.874,-30.253c5.25,-9.006 12.516,-16.052 21.799,-21.135c9.283,-5.084 19.671,-7.625 31.164,-7.625c8.62,-0 16.577,1.436 23.871,4.309c7.294,2.874 13.482,7.073 18.566,12.599l-7.791,7.791c-9.062,-9.173 -20.5,-13.759 -34.314,-13.759c-9.173,0 -17.516,2.1 -25.031,6.299c-7.515,4.2 -13.4,9.947 -17.655,17.24c-4.254,7.294 -6.382,15.472 -6.382,24.534c0,9.062 2.128,17.24 6.382,24.534c4.255,7.293 10.14,13.04 17.655,17.24c7.515,4.199 15.858,6.299 25.031,6.299c13.924,-0 25.362,-4.642 34.314,-13.925l7.791,7.791c-5.084,5.526 -11.3,9.753 -18.649,12.682c-7.349,2.928 -15.334,4.392 -23.954,4.392Z" style="fill:#fff;fill-rule:nonzero;"/><path d="M549.885,378.019l-26.522,-37.298c-2.984,0.332 -6.079,0.497 -9.283,0.497l-31.165,0l0,36.801l-12.267,-0l0,-116.038l43.432,0c14.808,0 26.412,3.537 34.811,10.609c8.399,7.073 12.598,16.798 12.598,29.175c0,9.062 -2.293,16.715 -6.879,22.959c-4.586,6.244 -11.134,10.748 -19.644,13.511l28.347,39.784l-13.428,-0Zm-36.137,-47.244c11.493,-0 20.279,-2.542 26.357,-7.625c6.078,-5.084 9.117,-12.212 9.117,-21.385c0,-9.393 -3.039,-16.604 -9.117,-21.632c-6.078,-5.029 -14.864,-7.543 -26.357,-7.543l-30.833,0l0,58.185l30.833,-0Z" style="fill:#fff;fill-rule:nonzero;"/><path d="M641.224,379.013c-11.493,0 -21.909,-2.569 -31.248,-7.708c-9.338,-5.139 -16.632,-12.184 -21.881,-21.135c-5.249,-8.952 -7.874,-19.008 -7.874,-30.17c0,-11.162 2.625,-21.218 7.874,-30.17c5.249,-8.951 12.543,-15.996 21.881,-21.135c9.339,-5.139 19.755,-7.708 31.248,-7.708c11.493,-0 21.854,2.541 31.081,7.625c9.228,5.083 16.494,12.129 21.799,21.135c5.304,9.007 7.957,19.091 7.957,30.253c-0,11.162 -2.653,21.246 -7.957,30.253c-5.305,9.006 -12.571,16.052 -21.799,21.135c-9.227,5.084 -19.588,7.625 -31.081,7.625Zm-0,-10.94c9.172,-0 17.461,-2.072 24.865,-6.217c7.404,-4.144 13.206,-9.89 17.406,-17.239c4.199,-7.349 6.299,-15.555 6.299,-24.617c-0,-9.062 -2.1,-17.268 -6.299,-24.617c-4.2,-7.349 -10.002,-13.095 -17.406,-17.239c-7.404,-4.145 -15.693,-6.217 -24.865,-6.217c-9.173,0 -17.489,2.072 -24.948,6.217c-7.46,4.144 -13.317,9.89 -17.572,17.239c-4.254,7.349 -6.382,15.555 -6.382,24.617c0,9.062 2.128,17.268 6.382,24.617c4.255,7.349 10.112,13.095 17.572,17.239c7.459,4.145 15.775,6.217 24.948,6.217Z" style="fill:#fff;fill-rule:nonzero;"/><path d="M802.682,318.177c7.625,1.657 13.51,4.945 17.654,9.863c4.145,4.918 6.217,11.244 6.217,18.98c-0,9.946 -3.675,17.599 -11.024,22.959c-7.349,5.36 -18.207,8.04 -32.573,8.04l-53.378,-0l0,-116.038l50.062,0c12.93,0 22.959,2.597 30.087,7.791c7.128,5.194 10.692,12.543 10.692,22.047c0,6.41 -1.575,11.853 -4.724,16.329c-3.15,4.475 -7.487,7.818 -13.013,10.029Zm-60.837,-46.084l0,42.105l36.966,0c9.394,0 16.632,-1.796 21.716,-5.387c5.084,-3.592 7.625,-8.814 7.625,-15.665c0,-6.852 -2.541,-12.074 -7.625,-15.666c-5.084,-3.591 -12.322,-5.387 -21.716,-5.387l-36.966,-0Zm40.945,95.814c10.388,0 18.234,-1.768 23.539,-5.305c5.304,-3.536 7.957,-9.062 7.957,-16.576c-0,-14.477 -10.499,-21.716 -31.496,-21.716l-40.945,-0l0,43.597l40.945,0Z" style="fill:#fff;fill-rule:nonzero;"/><path d="M936.623,367.41l-0,10.609l-82.056,-0l0,-116.038l79.569,0l0,10.609l-67.302,0l0,41.277l60.008,-0l0,10.443l-60.008,-0l0,43.1l69.789,-0Z" style="fill:#fff;fill-rule:nonzero;"/><path d="M1038.24,347.02l-64.65,0l-13.925,30.999l-12.764,-0l53.046,-116.038l12.101,0l53.046,116.038l-12.93,-0l-13.924,-30.999Zm-4.476,-9.946l-27.849,-62.329l-27.849,62.329l55.698,0Z" style="fill:#fff;fill-rule:nonzero;"/><path d="M1101.07,272.59l-40.779,0l-0,-10.609l93.825,0l-0,10.609l-40.779,0l-0,105.429l-12.267,-0l-0,-105.429Z" style="fill:#fff;fill-rule:nonzero;"/></g><path d="M1372.29,124.823l-1491.35,399.605l134.063,500.331l1491.35,-399.606l-134.063,-500.33Z" style="fill:#fff;fill-opacity:0.3;"/><path d="M808.517,-294.449l-331.288,1236.39l843.258,225.95l331.288,-1236.38l-843.258,-225.951Z" style="fill:#fff;fill-opacity:0.3;"/></g></svg>